<?xml version="1.0" standalone="no"?>
<!DOCTYPE svg PUBLIC "-//W3C//DTD SVG 20010904//EN"
 "http://www.w3.org/TR/2001/REC-SVG-20010904/DTD/svg10.dtd">
<svg version="1.0" xmlns="http://www.w3.org/2000/svg"
 width="1280.000000pt" height="853.000000pt" viewBox="0 0 1280.000000 853.000000"
 preserveAspectRatio="xMidYMid meet">

<g transform="translate(0.000000,853.000000) scale(0.100000,-0.100000)"
fill="#000000" stroke="none">
<path d="M0 4265 l0 -4265 6400 0 6400 0 0 4265 0 4265 -6400 0 -6400 0 0
-4265z m7390 2374 c0 -666 2 -1215 5 -1220 4 -5 14 -9 23 -9 16 0 17 69 14
1036 l-2 1035 32 -3 33 -3 2 -1038 c2 -673 -1 -1036 -7 -1032 -6 3 -10 4 -10
1 0 -12 50 -30 174 -62 162 -43 623 -191 630 -203 3 -5 -1 -11 -9 -15 -8 -3
-15 -14 -15 -24 0 -32 -63 -234 -115 -367 -15 -38 -38 -101 -52 -140 -71 -199
-229 -461 -330 -544 l-35 -29 47 -21 c26 -12 52 -21 57 -21 24 0 234 -124 423
-250 55 -37 107 -69 116 -72 8 -3 47 -27 86 -52 52 -34 82 -62 111 -106 61
-91 74 -143 76 -290 1 -110 -2 -130 -19 -155 -11 -17 -20 -34 -20 -39 0 -5
-10 -10 -22 -11 -12 -1 -20 1 -18 5 2 3 0 12 -4 19 -7 10 -13 10 -30 2 -17 -9
-20 -9 -15 3 6 15 -11 16 -33 3 -16 -10 -16 -2 -3 24 9 16 7 19 -10 19 -12 0
-18 5 -15 10 4 6 -5 10 -19 10 -14 0 -26 3 -26 8 0 4 -16 16 -36 27 -46 25
-69 67 -53 97 11 20 9 21 -20 15 -23 -5 -33 -2 -40 11 -6 9 -11 14 -11 10 0
-12 -60 13 -60 26 0 6 -9 18 -19 26 -11 7 -18 17 -15 22 3 4 -2 5 -11 2 -9 -4
-33 5 -55 20 -22 14 -48 26 -59 26 -28 0 -31 32 -5 70 17 24 20 36 12 41 -7 4
-16 5 -21 2 -6 -3 -23 -6 -39 -5 -33 1 -64 33 -72 75 -3 16 -10 26 -15 22 -5
-3 -12 -1 -16 4 -14 24 -65 36 -145 36 -74 -1 -92 -4 -134 -28 -27 -15 -59
-27 -72 -27 -12 0 -26 -4 -29 -10 -3 -5 -12 -10 -20 -10 -7 0 -46 -19 -87 -43
-79 -46 -84 -47 -235 -48 -139 -1 -205 18 -227 65 -11 24 -13 41 -7 58 17 46
58 69 295 168 164 67 217 93 237 112 8 8 44 39 81 70 55 46 76 57 116 63 44 6
55 12 98 63 70 81 147 200 206 322 29 58 53 111 54 119 7 37 28 71 45 71 21 0
26 16 8 22 -8 3 -1 38 21 108 17 58 40 132 50 165 10 33 23 79 30 103 7 23 11
44 9 46 -4 4 -224 70 -369 110 -25 7 -83 25 -130 39 -47 15 -176 52 -287 83
-119 34 -200 61 -196 67 3 6 1 7 -5 3 -13 -8 -122 15 -122 26 0 4 9 5 20 3 15
-3 20 2 20 17 0 14 -5 18 -15 14 -9 -3 -15 0 -15 10 0 8 -5 12 -10 9 -6 -4 -8
-10 -5 -14 9 -15 -29 -41 -45 -31 -12 8 -12 10 -1 10 8 0 11 7 9 18 -3 11 1
30 8 43 7 13 13 34 14 46 0 22 -21 33 -100 49 -19 4 -29 9 -23 11 15 5 178
-40 216 -60 15 -8 24 -17 21 -20 -3 -3 10 -2 29 3 22 5 48 3 73 -6 36 -13 106
-19 77 -7 -10 4 -13 254 -13 1204 l0 1199 35 0 35 0 0 -1211z m-110 -199 c0
-539 -2 -980 -4 -980 -2 0 -17 5 -35 11 l-31 11 -2 546 c-2 301 -2 664 0 807
3 242 -4 332 -25 312 -9 -10 -32 25 -33 48 0 10 12 29 27 41 25 20 28 29 31
103 l4 81 34 0 34 0 0 -980z m-5266 791 c4 -5 6 -1209 6 -2675 0 -2405 1
-2666 15 -2666 14 0 16 54 14 501 -1 328 2 504 8 510 6 6 23 9 39 7 l29 -3 5
-510 c3 -280 4 -522 2 -538 -3 -24 -7 -27 -42 -27 -32 0 -39 4 -42 22 -2 13
-7 23 -13 23 -5 0 -11 -10 -13 -23 -3 -18 -10 -22 -43 -22 -36 0 -39 2 -39 28
-2 2129 1 5366 6 5373 7 12 61 12 68 0z m1376 -628 c0 -928 0 -4604 0 -4695
l0 -78 -40 0 -40 0 0 73 c-3 1383 1 5321 5 5327 4 6 22 10 41 10 l34 0 0 -637z
m-1540 77 l22 -19 -36 -36 c-20 -19 -36 -29 -36 -21 0 7 -7 19 -15 26 -28 24
-11 70 25 70 10 0 27 -9 40 -20z m1374 -96 c19 -18 20 -25 5 -58 -10 -22 -15
-24 -33 -14 -31 16 -68 58 -52 58 8 0 19 7 26 15 16 19 35 19 54 -1z m3575
-23 c12 -8 14 -89 12 -502 -1 -271 -4 -496 -7 -501 -3 -4 -18 -8 -35 -8 l-29
0 -1 303 c-1 414 2 700 7 709 7 11 36 10 53 -1z m-3518 -2238 c0 -934 0 -1849
0 -2033 -1 -184 -1 -363 -1 -397 l0 -63 -40 0 -40 0 0 58 c-3 1357 1 4115 5
4122 3 6 22 10 41 10 l34 0 1 -1697z m3379 1584 c0 -4 -14 -21 -32 -37 l-32
-30 -1 -161 0 -161 60 6 c33 3 88 8 123 12 58 6 62 5 62 -13 0 -11 -7 -37 -15
-58 -9 -20 -20 -55 -25 -78 -5 -23 -13 -58 -19 -77 -6 -19 -23 -83 -39 -141
-16 -58 -32 -111 -36 -117 -3 -6 -2 -13 4 -17 6 -4 8 -11 5 -16 -8 -12 16 -81
33 -96 8 -6 11 -16 7 -22 -3 -6 -1 -11 5 -11 8 0 9 -7 5 -17 -4 -10 -8 -25
-11 -33 -39 -154 -78 -270 -89 -270 -7 0 -17 10 -23 23 -7 15 -11 17 -11 6 -1
-9 -11 -20 -22 -25 -20 -9 -21 -11 -5 -27 16 -15 16 -18 2 -23 -9 -3 -22 -4
-30 -1 -8 3 -17 -1 -20 -9 -9 -23 -7 -36 4 -29 6 3 10 -3 10 -13 0 -11 7 -22
15 -26 9 -3 15 0 15 9 0 8 9 15 20 15 16 0 19 -6 17 -30 -4 -29 -17 -55 -17
-32 0 7 -4 12 -10 12 -5 0 -10 -6 -10 -13 0 -8 -12 -19 -26 -25 -14 -7 -22
-17 -19 -22 3 -5 0 -7 -8 -4 -7 2 -14 11 -14 19 0 8 4 12 9 9 4 -3 8 2 8 10 0
24 -18 19 -26 -6 -15 -45 -10 -83 11 -90 19 -6 19 -6 -2 -7 -16 -1 -25 -12
-36 -43 -16 -46 -39 -151 -57 -263 -23 -139 -23 -139 -53 -19 -38 146 -106
362 -117 369 -4 3 -3 -9 3 -25 14 -37 0 -65 -31 -64 -12 0 -18 -4 -15 -9 3 -5
20 -7 38 -4 28 5 34 2 39 -16 7 -26 2 -31 -31 -32 -15 0 -28 -5 -30 -10 -4
-12 41 -14 53 -2 13 13 24 7 24 -13 0 -11 -4 -20 -10 -20 -5 0 -10 -4 -10 -10
0 -5 6 -7 14 -4 8 3 16 -3 19 -15 3 -11 0 -22 -7 -24 -7 -3 -3 -11 9 -20 11
-8 17 -18 14 -22 -4 -3 -14 2 -24 11 -9 9 -27 18 -39 19 -22 3 -23 1 -15 -34
5 -20 9 -40 9 -46 0 -5 4 -4 8 2 4 7 22 16 40 19 25 5 32 3 32 -9 0 -16 -54
-40 -65 -29 -4 4 -4 -8 0 -27 l7 -33 -22 22 c-26 26 -61 23 -76 -8 -12 -24
-12 -23 -24 14 -11 32 -10 39 4 49 9 7 16 22 16 33 0 24 18 39 30 26 12 -14
-1 -75 -17 -81 -8 -3 -19 0 -25 8 -8 12 -9 11 -5 -1 3 -11 15 -14 43 -12 21 2
41 6 44 8 6 7 -34 161 -54 204 -15 32 -16 32 -12 8 2 -17 -3 -33 -12 -40 -13
-11 -15 -9 -9 22 5 25 4 31 -3 20 -5 -8 -10 -11 -10 -7 0 9 -30 -18 -30 -27 0
-3 7 -6 16 -6 14 0 15 -2 3 -16 -12 -15 -11 -16 11 -9 14 4 31 10 38 12 7 3
12 -3 12 -16 0 -33 -3 -36 -29 -33 -21 3 -23 1 -12 -12 10 -12 11 -16 1 -16
-7 0 -10 -6 -7 -12 2 -7 1 -22 -3 -33 -5 -14 -10 -4 -21 40 -16 63 -34 78 -62
50 -14 -14 -16 -13 -24 7 -4 13 -8 28 -9 33 0 6 -4 18 -8 27 -4 9 -9 23 -10
32 -1 8 -5 19 -9 22 -4 4 -7 16 -7 26 0 10 -4 18 -10 18 -5 0 -6 7 -3 17 5 12
3 14 -7 8 -8 -5 -11 -4 -7 2 6 10 -24 115 -44 155 -5 10 -9 25 -9 33 0 8 -6
15 -14 15 -24 0 -27 -16 -6 -35 13 -11 18 -27 16 -46 -2 -15 1 -27 7 -26 5 1
13 -9 17 -23 44 -148 53 -180 49 -184 -13 -13 -44 -9 -47 7 -2 11 3 17 14 17
16 0 16 1 -2 15 -15 11 -16 15 -4 15 8 1 5 5 -9 11 -19 7 -22 14 -17 35 5 17
3 23 -4 19 -5 -3 -14 4 -19 17 -13 32 -13 6 0 -28 11 -31 84 -315 119 -464 25
-107 29 -117 40 -99 10 16 38 20 46 7 3 -5 -3 -12 -15 -15 -11 -3 -18 -9 -15
-14 3 -5 10 -7 15 -4 19 12 30 -7 12 -21 -17 -12 -17 -13 0 -14 25 0 21 -25
-7 -38 -36 -16 -38 -46 -5 -88 44 -55 61 -133 39 -175 -15 -26 -27 -24 -34 7
-18 68 -61 94 -163 94 -79 0 -105 19 -68 50 8 7 15 17 15 22 0 6 -7 8 -15 4
-8 -3 -15 -2 -15 3 0 5 -10 11 -22 14 -86 21 -126 50 -96 69 12 7 69 12 138
12 14 0 47 -3 74 -8 l49 -8 -6 31 c-4 17 -3 31 2 31 5 0 11 14 13 31 4 22 0
34 -14 42 -10 7 -18 18 -18 25 0 7 -7 20 -15 29 -12 11 -19 12 -29 4 -12 -10
-15 -4 -21 31 -8 46 -80 304 -119 428 -13 41 -39 122 -56 180 -33 107 -152
463 -231 693 -25 73 -49 127 -56 127 -19 0 -16 13 6 27 18 11 372 91 596 134
74 14 130 31 170 52 41 22 73 32 105 32 25 1 52 4 62 9 12 5 18 2 23 -13 5
-17 15 -21 46 -21 21 0 40 3 40 8 1 4 4 79 8 167 l6 160 32 3 c32 3 32 4 26
47 -5 40 -3 44 23 58 27 14 30 14 41 -6 7 -12 12 -26 13 -30z m225 -357 c7
-12 -2 -12 -30 0 -19 8 -19 9 2 9 12 1 25 -3 28 -9z m-3714 -492 c1 -305 0
-2670 -1 -3175 l0 -53 -40 0 -40 0 0 1805 c0 992 3 1811 6 1820 4 9 19 15 40
15 l34 0 1 -412z m3779 397 c10 -12 10 -15 -4 -15 -9 0 -16 7 -16 15 0 8 2 15
4 15 2 0 9 -7 16 -15z m-80 -55 c0 -5 -5 -10 -11 -10 -5 0 -7 5 -4 10 3 6 8
10 11 10 2 0 4 -4 4 -10z m7 -72 c-3 -8 -6 -5 -6 6 -1 11 2 17 5 13 3 -3 4
-12 1 -19z m238 -48 c18 -8 17 -9 -7 -9 -16 -1 -28 4 -28 9 0 12 8 12 35 0z
m-1612 -152 c27 -79 49 -150 51 -158 1 -8 7 -26 13 -40 6 -14 13 -36 17 -50 6
-19 5 -21 -3 -10 -17 24 -13 5 23 -114 68 -221 94 -350 75 -373 -1 -2 -2 -8
-3 -15 -3 -31 -27 -13 -56 44 -17 35 -45 75 -61 90 -16 15 -29 37 -29 48 0 29
-27 91 -52 117 -27 29 -71 30 -98 3 -24 -24 -25 -45 -5 -94 8 -20 13 -36 11
-36 -6 0 -76 132 -76 142 0 5 11 13 25 18 19 7 25 17 25 40 0 17 -5 30 -12 30
-9 0 -9 3 0 12 30 30 -1 34 -65 7 -18 -7 -33 -19 -33 -25 0 -7 43 -99 96 -204
78 -155 94 -194 83 -202 -11 -8 -11 -9 2 -5 11 4 20 -3 28 -21 8 -21 8 -23 -1
-10 -11 15 -13 15 -29 -3 -11 -13 -20 -16 -24 -9 -3 5 -17 10 -31 10 -15 0
-24 6 -24 16 0 8 -4 13 -8 10 -4 -2 -35 48 -67 112 -141 274 -188 358 -213
379 -27 22 -27 22 -7 41 11 11 115 68 232 127 l212 106 -29 80 c-16 43 -26 79
-22 79 4 0 29 -64 55 -142z m1765 113 c1 -1 3 -1 5 -2 1 0 34 -9 72 -20 76
-22 111 -30 138 -32 9 -1 17 -5 17 -9 0 -4 8 -7 18 -7 9 0 31 -3 47 -6 17 -4
38 -7 48 -8 9 -1 17 -4 17 -8 0 -4 9 -9 20 -12 11 -3 20 -1 20 5 0 5 7 2 17
-7 9 -10 26 -15 40 -12 12 2 23 0 23 -6 0 -6 3 -8 6 -4 4 3 19 0 35 -9 16 -8
29 -12 29 -9 0 3 8 1 18 -4 9 -5 31 -11 48 -14 17 -3 40 -10 51 -16 11 -5 23
-7 27 -4 3 3 6 1 6 -6 0 -7 4 -10 8 -7 13 8 82 -43 82 -60 0 -10 6 -14 15 -10
11 4 15 -1 15 -19 0 -13 4 -26 9 -29 5 -4 8 -25 6 -49 -3 -53 -45 -172 -55
-157 -5 8 -9 7 -13 -3 -3 -8 -1 -19 5 -25 15 -15 -12 -83 -32 -79 -10 1 -16
-7 -17 -28 -2 -25 -1 -27 7 -10 7 16 9 17 9 3 1 -9 -4 -20 -9 -23 -6 -4 -8
-10 -6 -14 3 -4 0 -13 -6 -21 -8 -12 -9 -11 -4 5 l6 20 -16 -20 c-15 -19 -15
-18 -8 20 3 22 10 47 15 56 9 17 -21 49 -46 49 -23 0 -64 -52 -71 -90 -4 -19
-10 -37 -13 -40 -9 -7 -33 -71 -38 -104 -4 -20 -8 -24 -14 -15 -6 9 -9 1 -9
-23 0 -20 -5 -40 -11 -44 -6 -3 -9 -14 -6 -24 3 -11 -1 -21 -9 -24 -8 -3 -14
-10 -14 -16 0 -6 13 -2 29 9 31 22 63 19 54 -5 -13 -35 10 -8 37 44 17 31 28
48 24 37 -4 -11 -7 -28 -8 -37 0 -10 -4 -18 -9 -18 -4 0 -5 -5 -2 -10 9 -15
-55 -122 -76 -127 -10 -3 -28 -20 -40 -39 -24 -39 -64 -70 -104 -80 -26 -6
-28 -5 -22 15 5 22 5 22 -15 4 -20 -18 -20 -17 1 25 12 23 26 40 30 37 5 -2 7
11 4 30 -3 25 1 40 16 56 25 27 18 53 -10 38 -11 -5 -17 -14 -14 -20 4 -5 1
-9 -4 -9 -6 0 -10 -10 -8 -22 1 -18 -3 -23 -18 -21 -14 1 -25 -7 -34 -28 -16
-36 -35 -46 -56 -29 -13 11 -12 16 7 42 14 21 23 53 27 98 4 37 12 74 19 83
15 18 25 177 11 177 -5 0 -9 6 -9 13 0 15 -76 90 -100 100 -11 4 -9 6 5 6 11
0 47 -11 80 -24 33 -14 61 -25 63 -25 1 0 -5 11 -14 25 -19 29 -76 58 -150 76
-27 6 -53 15 -59 19 -15 11 -127 -7 -136 -22 -6 -9 -2 -14 11 -16 14 -2 19
-10 16 -25 -4 -29 -36 -36 -36 -8 0 12 -4 21 -10 21 -16 0 -12 -52 6 -64 13
-10 12 -15 -10 -41 -14 -16 -23 -32 -20 -37 3 -4 0 -8 -6 -8 -6 0 -9 -4 -5 -9
3 -6 -3 -14 -12 -20 -10 -6 -12 -11 -5 -11 6 0 12 -10 12 -22 -1 -21 -2 -21
-13 -6 -9 11 -18 14 -28 7 -12 -7 -12 -9 0 -9 8 0 11 -3 8 -7 -4 -3 -2 -12 4
-20 9 -10 8 -13 -4 -13 -10 0 -14 -6 -11 -14 7 -19 -16 -32 -26 -15 -5 7 -7
16 -4 20 2 4 0 10 -6 14 -6 4 -7 12 -3 18 4 7 0 6 -10 -2 -9 -7 -17 -21 -17
-30 0 -19 -19 -41 -34 -41 -6 0 -5 4 3 9 11 7 9 13 -9 31 -21 21 -21 23 -5 62
12 30 13 43 5 48 -11 7 -83 -5 -102 -16 -11 -7 -11 -6 8 66 8 34 12 69 8 78
-4 9 -8 31 -9 47 -1 17 0 24 2 17 3 -6 8 -10 12 -7 5 2 14 -7 21 -20 15 -29
43 -35 33 -7 -3 9 -11 23 -16 30 -5 7 -7 15 -4 18 3 3 13 -8 22 -25 19 -38 24
-39 17 -4 -6 32 -32 64 -45 56 -5 -3 -7 3 -4 13 3 11 8 31 11 46 4 15 12 26
19 23 6 -2 25 -6 40 -9 15 -4 25 -10 23 -15 -3 -5 10 -1 29 7 20 10 31 20 26
25 -5 5 -3 20 5 35 16 31 18 62 5 62 -5 0 -7 9 -4 20 3 11 9 17 14 14 5 -3 9
9 9 26 0 18 4 29 10 25 6 -3 10 0 10 8 0 8 9 26 20 40 11 14 20 36 20 49 0 32
13 49 38 51 11 0 20 6 19 11 -2 9 80 9 95 -1 5 -2 8 2 8 9 0 10 3 9 10 -2 5
-8 12 -11 17 -7 11 11 -16 25 -37 20 -9 -3 -23 1 -31 9 -8 7 -18 13 -24 13
-16 1 -125 35 -125 40 0 3 43 0 58 -4z m-278 -21 c0 -5 -9 -6 -20 -3 -11 3
-17 9 -15 14 7 10 35 1 35 -11z m-184 -62 c0 -36 -1 -38 -10 -17 -6 13 -14 27
-19 30 -12 8 3 38 16 33 7 -2 12 -23 13 -46z m163 23 c10 -7 11 -13 2 -30 -13
-24 -26 -29 -17 -6 3 9 -1 18 -9 21 -8 4 -15 10 -15 15 0 11 21 11 39 0z m158
-8 c10 -13 16 -14 19 -6 4 9 11 9 28 2 17 -8 22 -17 18 -35 -4 -20 -8 -23 -31
-17 -29 7 -35 11 -37 24 -3 22 -5 23 -13 11 -6 -10 -13 -8 -32 8 -13 12 -19
19 -12 16 6 -4 14 -2 18 4 9 15 26 12 42 -7z m101 -41 c-3 -34 -38 -94 -38
-64 0 6 5 14 10 17 6 4 10 12 9 18 -3 14 11 67 17 67 3 0 3 -17 2 -38z m-408
-32 c0 -5 -5 -10 -11 -10 -5 0 -7 5 -4 10 3 6 8 10 11 10 2 0 4 -4 4 -10z
m343 -7 c6 -4 11 -53 5 -53 -21 1 -83 31 -82 39 3 31 5 32 37 26 17 -4 35 -9
40 -12z m-413 3 c0 -3 -4 -8 -10 -11 -5 -3 -10 -1 -10 4 0 6 5 11 10 11 6 0
10 -2 10 -4z m186 -47 c-17 -25 -20 -19 -10 19 5 15 10 20 16 14 7 -7 5 -18
-6 -33z m-132 15 c4 -10 1 -14 -6 -12 -15 5 -23 28 -10 28 5 0 13 -7 16 -16z
m-34 -4 c0 -5 -7 -10 -16 -10 -8 0 -12 5 -9 10 3 6 10 10 16 10 5 0 9 -4 9
-10z m100 -21 c0 -6 -4 -7 -10 -4 -5 3 -10 11 -10 16 0 6 5 7 10 4 6 -3 10
-11 10 -16z m153 5 c3 -3 34 -8 68 -10 35 -3 64 -6 66 -7 8 -8 -12 -46 -26
-49 -32 -7 -131 40 -131 62 0 11 13 13 23 4z m-255 -14 c12 0 13 -3 4 -12 -13
-13 -16 -49 -4 -64 4 -5 0 -2 -9 8 -9 9 -19 15 -22 12 -2 -3 -7 11 -9 31 -3
27 -1 34 10 30 7 -3 21 -5 30 -5z m144 -72 c-6 -6 -19 -7 -29 -3 -10 5 -21 8
-25 7 -4 -1 -5 5 -2 13 7 18 10 18 35 5 15 -9 19 -7 20 7 1 17 2 16 6 -1 3
-10 0 -23 -5 -28z m176 6 c30 -6 46 -32 35 -59 -3 -10 -10 -11 -21 -5 -10 5
-32 15 -49 22 -20 8 -33 20 -33 30 0 19 17 22 68 12z m-286 -96 c-6 -6 -7 0
-4 19 5 21 7 23 10 9 2 -10 0 -22 -6 -28z m83 24 c-3 -3 -11 0 -18 7 -9 10 -8
11 6 5 10 -3 15 -9 12 -12z m189 -4 c52 -15 50 -13 36 -37 -14 -27 -28 -26
-58 2 -14 12 -22 16 -18 10 9 -16 4 -16 -28 -1 -24 10 -24 12 -8 24 21 17 25
17 76 2z m-230 -74 c24 -23 19 -34 -14 -34 -22 0 -30 5 -30 18 0 34 19 41 44
16z m-1817 -19 c0 -8 -4 -12 -9 -9 -5 3 -6 10 -3 15 9 13 12 11 12 -6z m1765
-50 c6 -7 14 -4 22 7 7 9 17 14 22 10 14 -9 25 -52 13 -52 -5 0 -11 -11 -15
-25 -6 -25 -7 -25 -20 -7 -7 11 -25 23 -39 26 -28 7 -30 18 -13 67 12 32 13
33 16 9 2 -14 8 -29 14 -35z m-1798 21 c-3 -9 -10 -16 -15 -16 -14 0 -11 28 4
33 16 6 19 3 11 -17z m2466 -126 c0 -3 -24 -7 -52 -7 -29 -1 -62 -3 -73 -5
-21 -3 -28 19 -11 37 9 11 136 -13 136 -25z m-1995 10 c10 -11 16 -21 14 -23
-36 -21 -89 -43 -93 -39 -11 10 -6 58 6 70 18 18 53 14 73 -8z m1298 6 c6 -15
-30 -49 -43 -41 -6 4 -3 16 7 30 21 28 29 31 36 11z m85 -20 c1 -18 -5 -27
-21 -32 -12 -4 -25 -11 -28 -16 -3 -5 -6 5 -6 21 0 17 4 28 9 25 4 -3 8 -1 8
5 0 5 8 12 18 14 9 3 17 5 17 6 0 0 2 -10 3 -23z m-5248 -80 c0 -26 -37 -48
-68 -41 -26 5 -29 10 -26 38 3 18 14 40 27 49 21 17 23 17 45 -8 12 -14 22
-31 22 -38z m3910 5 c0 -21 -30 -51 -50 -51 -10 0 -28 8 -40 18 l-21 17 48 26
c48 27 62 24 63 -10z m1230 14 c-12 -15 -30 -12 -30 6 0 5 10 9 21 9 18 0 19
-2 9 -15z m-82 -55 c-1 -16 -5 -30 -10 -30 -5 0 -7 4 -3 9 3 5 1 12 -5 16 -6
4 -5 11 3 20 16 19 16 19 15 -15z m72 18 c0 -4 -4 -8 -9 -8 -6 0 -12 4 -15 8
-3 5 1 9 9 9 8 0 15 -4 15 -9z m-5400 -60 c-1 -35 1 -638 4 -1342 2 -703 2
-1284 -1 -1292 -3 -8 -19 -14 -38 -14 -32 0 -33 1 -37 50 -3 28 -4 590 -2
1250 2 777 -1 1200 -7 1200 -6 0 -6 7 1 19 5 11 10 58 10 105 l0 86 35 0 35 0
0 -62z m6605 52 c12 -20 -7 -31 -22 -13 -8 10 -11 12 -8 5 5 -10 2 -13 -10
-10 -10 1 -20 9 -23 16 -5 15 54 17 63 2z m-2489 -45 c0 0 -2 -11 -5 -23 -6
-21 -8 -19 -30 25 l-23 48 29 -25 c15 -14 28 -25 29 -25z m99 -5 c10 -11 16
-21 14 -23 -2 -1 -22 -11 -43 -20 -32 -15 -41 -16 -47 -5 -13 20 -11 35 7 52
21 22 47 20 69 -4z m1365 0 c0 -5 -2 -10 -4 -10 -3 0 -8 5 -11 10 -3 6 -1 10
4 10 6 0 11 -4 11 -10z m610 -21 c0 -28 -15 -23 -16 6 -1 14 2 22 7 19 5 -3 9
-14 9 -25z m442 -6 c-9 -18 -21 -33 -28 -33 -7 0 -15 -8 -17 -17 -4 -15 -5
-15 -6 2 -1 27 27 67 41 59 7 -5 9 -2 6 8 -4 8 -1 15 7 15 10 0 10 -8 -3 -34z
m-941 3 c-6 -7 -22 -11 -36 -8 -33 6 -21 22 17 22 25 0 28 -3 19 -14z m239 -5
c0 -4 -7 -8 -15 -8 -8 0 -15 6 -15 13 0 8 6 11 15 8 8 -4 15 -9 15 -13z m17
-13 c-3 -8 -6 -5 -6 6 -1 11 2 17 5 13 3 -3 4 -12 1 -19z m71 -44 c14 -10 12
-11 -11 -7 -20 4 -27 11 -27 27 0 32 14 43 18 15 2 -13 11 -29 20 -35z m489
36 c1 -11 -2 -22 -8 -25 -10 -7 -13 28 -2 38 9 9 9 10 10 -13z m-467 0 c0 -5
-8 -10 -17 -10 -15 0 -16 2 -3 10 19 12 20 12 20 0z m-1780 -24 c0 -8 -3 -22
-6 -30 -5 -14 -9 -14 -22 -4 -9 7 -13 8 -10 3 4 -6 3 -17 -1 -24 -7 -10 -13
-10 -30 -2 -29 16 -27 26 12 49 39 24 57 27 57 8z m1110 -5 c0 -5 -9 -7 -20
-4 -11 3 -20 7 -20 9 0 2 9 4 20 4 11 0 20 -4 20 -9z m100 -11 c8 -5 11 -12 8
-16 -10 -9 -38 3 -38 16 0 12 10 13 30 0z m1080 6 c0 -3 -4 -8 -10 -11 -5 -3
-10 -1 -10 4 0 6 5 11 10 11 6 0 10 -2 10 -4z m-3291 -32 c10 -22 9 -28 -6
-40 -10 -7 -30 -14 -45 -14 -23 0 -28 4 -28 24 0 41 11 56 39 56 20 0 31 -7
40 -26z m2616 6 c-3 -5 -10 -10 -16 -10 -5 0 -9 5 -9 10 0 6 7 10 16 10 8 0
12 -4 9 -10z m200 0 c3 -6 -1 -7 -9 -4 -18 7 -21 14 -7 14 6 0 13 -4 16 -10z
m-788 -22 c-3 -8 -6 -5 -6 6 -1 11 2 17 5 13 3 -3 4 -12 1 -19z m354 -3 c-2
-17 -36 -11 -39 7 -3 14 1 16 18 10 12 -4 21 -12 21 -17z m-291 -5 c0 -13 -12
-19 -26 -13 -8 3 -12 8 -9 12 5 10 35 10 35 1z m-1172 -25 c-3 -3 -9 2 -12 12
-6 14 -5 15 5 6 7 -7 10 -15 7 -18z m1082 15 c0 -5 -7 -10 -16 -10 -8 0 -12 5
-9 10 3 6 10 10 16 10 5 0 9 -4 9 -10z m200 -5 c0 -17 -2 -18 -24 -9 -23 9
-20 24 4 24 11 0 20 -7 20 -15z m-1179 -2 c-10 -4 -8 -9 10 -19 18 -10 20 -13
7 -14 -9 0 -20 5 -23 10 -3 6 -11 10 -17 10 -6 0 -5 -6 3 -16 10 -13 10 -17
-2 -25 -21 -13 -27 -11 -39 11 -9 17 -6 22 22 34 18 8 38 14 43 14 6 0 4 -2
-4 -5z m1314 -13 c3 -5 1 -10 -4 -10 -6 0 -11 5 -11 10 0 6 2 10 4 10 3 0 8
-4 11 -10z m-265 -15 c0 -8 -7 -15 -15 -15 -16 0 -20 12 -8 23 11 12 23 8 23
-8z m-70 -16 c0 -5 -6 -9 -13 -9 -8 0 -14 6 -14 14 0 8 6 12 14 9 7 -3 13 -9
13 -14z m184 12 c4 -5 -3 -7 -14 -4 -23 6 -26 13 -6 13 8 0 17 -4 20 -9z
m-124 -37 c0 -2 -7 -4 -15 -4 -8 0 -15 4 -15 10 0 5 7 7 15 4 8 -4 15 -8 15
-10z m-997 -16 c12 -13 21 -26 20 -30 -2 -4 3 -5 10 -2 14 5 18 -39 4 -52 -4
-5 -5 0 -1 10 5 14 4 17 -4 12 -7 -4 -15 0 -18 9 -5 12 -9 13 -20 4 -9 -8 -14
-8 -14 -1 0 6 -9 9 -20 7 -11 -2 -23 1 -26 7 -4 7 -2 8 4 4 7 -4 13 -1 13 8 1
9 3 21 4 26 1 6 3 12 4 15 3 11 22 4 44 -17z m981 -16 c3 -5 -1 -9 -9 -9 -8 0
-12 4 -9 9 3 4 7 8 9 8 2 0 6 -4 9 -8z m605 -21 c8 -5 23 -6 34 -2 28 10 141
-5 179 -25 29 -15 30 -18 15 -29 -9 -7 -17 -17 -17 -22 0 -15 -54 -23 -62 -10
-5 7 -8 2 -8 -12 0 -19 -4 -22 -20 -18 -14 4 -25 -1 -33 -14 -6 -10 -18 -19
-25 -19 -7 0 -17 -11 -22 -25 -6 -16 -14 -23 -25 -19 -9 4 -15 1 -15 -9 0 -8
-11 -18 -25 -21 -14 -4 -25 -13 -25 -22 0 -9 -13 -21 -30 -27 -21 -8 -30 -18
-30 -34 0 -13 -4 -23 -9 -23 -4 0 -28 -16 -52 -35 -24 -19 -49 -35 -54 -35 -6
0 -50 -38 -99 -85 -49 -47 -92 -85 -96 -85 -4 0 -23 -25 -41 -55 -25 -41 -39
-55 -56 -55 -13 0 -46 -11 -73 -25 -27 -14 -52 -25 -54 -25 -3 0 3 13 12 30 9
16 23 30 30 30 11 0 32 37 46 83 4 12 16 17 41 17 24 0 35 4 35 15 0 8 9 24
20 35 11 11 20 17 20 13 0 -3 2 -4 5 -1 3 2 -2 19 -11 37 -14 28 -15 39 -4 73
6 22 16 46 21 52 16 19 109 179 109 188 0 11 18 10 25 -2 5 -8 11 -7 20 0 8 7
19 9 25 5 5 -3 10 1 10 9 0 9 4 16 9 16 5 0 13 9 16 20 5 15 12 19 25 15 11
-4 23 1 32 13 14 20 117 90 133 91 6 0 16 -3 24 -8z m301 -7 c0 -2 -9 -4 -21
-4 -11 0 -18 4 -14 10 5 8 35 3 35 -6z m-1516 -46 c8 -33 8 -35 -13 -41 -13
-3 -21 1 -24 14 -3 13 0 19 10 19 13 0 13 3 3 15 -10 12 -10 15 3 15 8 0 17
-10 21 -22z m-5088 -21 c1 -1 -1 -15 -3 -32 -6 -38 -73 -88 -73 -55 0 10 -4
22 -10 25 -15 9 -12 36 7 58 13 13 25 17 47 13 16 -4 30 -7 32 -9z m5615 -38
c-6 -13 -20 -35 -31 -49 -16 -19 -14 -12 7 27 29 53 41 64 24 22z m919 -29
c-14 -11 -29 -19 -35 -19 -5 0 -4 3 3 6 6 2 12 11 12 19 0 8 5 14 11 14 6 0 8
7 5 18 -7 16 -6 16 11 -1 17 -17 17 -19 -7 -37z m130 36 c0 -8 -8 -17 -17 -22
-28 -11 -73 -16 -73 -7 0 13 40 34 50 28 6 -4 10 -1 10 4 0 6 7 11 15 11 8 0
15 -6 15 -14z m-1563 -13 c2 -6 -5 -13 -17 -16 -12 -3 -20 0 -20 7 0 26 29 33
37 9z m60 -15 c-3 -8 -6 -5 -6 6 -1 11 2 17 5 13 3 -3 4 -12 1 -19z m-50 -28
c-3 -11 -1 -20 4 -20 5 0 9 -7 9 -15 0 -9 -9 -15 -21 -15 -16 0 -20 5 -16 20
3 10 0 21 -6 23 -15 5 1 27 20 27 10 0 14 -6 10 -20z m245 -2 c-7 -7 -12 -8
-12 -2 0 14 12 26 19 19 2 -3 -1 -11 -7 -17z m-153 -7 c8 -15 7 -20 -8 -24
-13 -3 -21 1 -24 14 -9 32 16 40 32 10z m1291 -27 c0 -8 -5 -12 -10 -9 -6 4
-8 11 -5 16 9 14 15 11 15 -7z m-3928 -996 c2 -546 2 -1035 0 -1085 l-3 -93
-39 0 -39 0 -3 88 c-2 48 -2 536 0 1085 l2 997 40 0 40 0 2 -992z m2653 942
c-9 -15 -22 -12 -29 7 -9 21 16 37 27 17 4 -8 5 -19 2 -24z m-85 16 c0 -7 -9
-16 -20 -19 -22 -6 -29 18 -7 26 21 9 27 7 27 -7z m303 -20 c5 -13 -19 -26
-50 -26 -23 0 -14 28 10 33 12 2 25 5 28 6 4 0 9 -5 12 -13z m-103 -25 c0 -4
-13 -12 -30 -18 -24 -9 -30 -9 -30 2 0 8 8 18 17 23 17 10 43 6 43 -7z m564
-4 c-5 -15 -64 -22 -64 -8 0 9 21 16 57 20 7 0 10 -5 7 -12z m-757 -29 c-18
-12 -27 -10 -27 6 0 8 6 16 13 19 17 6 29 -16 14 -25z m93 16 c0 -11 -6 -15
-20 -11 -11 3 -20 0 -20 -6 0 -6 -3 -8 -6 -4 -4 3 -4 13 -1 22 8 20 47 20 47
-1z m137 -16 c-3 -8 -6 -5 -6 6 -1 11 2 17 5 13 3 -3 4 -12 1 -19z m73 13 c0
-13 -41 -41 -51 -35 -14 8 14 44 33 44 10 0 18 -4 18 -9z m416 -27 c18 7 18
-2 0 -20 -19 -18 -26 -18 -26 1 0 8 -7 15 -15 15 -8 0 -15 6 -15 13 0 24 13
27 28 6 8 -11 20 -18 28 -15z m-2616 -33 c0 -22 3 -42 8 -45 4 -2 3 -64 -1
-138 -5 -73 -6 -454 -3 -845 3 -392 2 -773 -1 -848 l-6 -135 -34 0 -33 0 0
148 c0 130 -8 187 -24 171 -3 -3 -6 -76 -7 -162 l-1 -157 -39 0 -39 0 -1 138
c0 75 -3 187 -5 247 -2 61 -1 206 2 323 l6 212 33 0 32 0 6 -167 c4 -91 7
-222 7 -290 0 -67 4 -123 9 -123 5 0 10 10 12 23 5 29 3 1421 -2 1515 -2 39
-1 72 3 72 5 0 8 23 8 50 l0 50 35 0 c34 0 35 -1 35 -39z m1039 -203 c0 -134
3 -587 6 -1008 3 -421 3 -773 -1 -783 -4 -11 -17 -17 -40 -17 l-34 0 -2 403
c-2 221 -2 682 0 1025 l2 622 35 0 35 0 -1 -242z m1062 228 c0 -6 -6 -11 -13
-12 -7 -1 -21 -5 -30 -9 -13 -5 -18 -2 -18 8 0 15 23 26 48 23 7 0 13 -5 13
-10z m-187 -5 c3 -5 -3 -11 -14 -14 -13 -3 -20 0 -20 9 0 15 26 19 34 5z m314
-45 c-63 -42 -84 -39 -41 6 23 24 28 26 36 12 5 -8 7 -17 5 -18z m-218 4 c0
-21 -15 -27 -25 -10 -7 12 2 30 16 30 5 0 9 -9 9 -20z m-80 -4 c0 -8 3 -21 6
-29 3 -9 -3 -16 -15 -20 -22 -5 -30 16 -10 28 6 4 8 13 5 21 -3 8 -1 14 4 14
6 0 10 -6 10 -14z m217 -8 c-3 -8 -6 -5 -6 6 -1 11 2 17 5 13 3 -3 4 -12 1
-19z m-732 -33 c41 -37 47 -47 35 -55 -8 -5 -19 -10 -25 -10 -5 0 -4 -4 3 -9
10 -6 3 -17 -29 -45 -40 -33 -59 -42 -84 -36 -31 7 -41 6 -47 -4 -5 -8 -11 -7
-20 2 -10 10 -9 21 5 59 19 50 85 143 102 143 5 0 33 -21 60 -45z m1175 15 c0
-5 -9 -10 -20 -10 -11 0 -20 5 -20 10 0 6 9 10 20 10 11 0 20 -4 20 -10z
m-518 -132 c8 -28 8 -41 0 -51 -7 -8 -10 -16 -7 -18 2 -3 -5 -6 -16 -6 -17 -2
-20 2 -15 23 4 13 2 24 -2 24 -5 0 -17 26 -26 58 -15 54 -15 58 1 69 10 7 23
16 28 21 6 6 13 -7 18 -37 4 -25 13 -63 19 -83z m48 108 c0 -7 -11 -16 -25
-18 -26 -5 -36 16 -12 25 23 10 37 7 37 -7z m78 -7 c12 0 10 -3 -5 -9 -13 -5
-23 -17 -23 -26 0 -23 -6 -15 -14 20 -6 24 -4 27 9 22 9 -3 24 -6 33 -7z m-58
-69 c0 -13 -41 -30 -54 -22 -11 6 22 32 41 32 7 0 13 -5 13 -10z m2212 -39 c4
0 5 -8 1 -17 -3 -9 -9 -12 -12 -7 -3 5 -17 14 -31 20 -25 11 -25 11 5 8 17 -1
33 -3 37 -4z m88 -49 c0 -1 -9 2 -20 8 -11 6 -20 15 -20 20 0 6 9 2 20 -7 11
-10 20 -19 20 -21z m167 16 c-3 -8 -6 -5 -6 6 -1 11 2 17 5 13 3 -3 4 -12 1
-19z m97 14 c3 -5 -1 -9 -9 -9 -8 0 -12 4 -9 9 3 4 7 8 9 8 2 0 6 -4 9 -8z
m-329 -11 c3 -5 2 -12 -3 -15 -5 -3 -9 1 -9 9 0 17 3 19 12 6z m-2405 -5 c0
-2 -7 -6 -15 -10 -8 -3 -15 -1 -15 4 0 6 7 10 15 10 8 0 15 -2 15 -4z m6308
-31 c-3 -3 -9 2 -12 12 -6 14 -5 15 5 6 7 -7 10 -15 7 -18z m-2959 -34 c-1
-12 -3 -11 -6 2 -3 10 -11 16 -18 13 -9 -3 -11 2 -7 16 5 20 6 20 19 3 7 -11
12 -26 12 -34z m22 -32 c-9 -22 -10 -22 -10 -3 -1 11 2 24 6 27 12 12 14 0 4
-24z m49 -9 c0 -5 -5 -10 -11 -10 -5 0 -7 5 -4 10 3 6 8 10 11 10 2 0 4 -4 4
-10z m77 -66 c-3 -3 -12 -4 -19 -1 -8 3 -5 6 6 6 11 1 17 -2 13 -5z m857 -10
c3 -8 2 -12 -4 -9 -6 3 -10 10 -10 16 0 14 7 11 14 -7z m-3910 -82 c-48 -44
-76 -42 -35 2 12 12 21 28 21 34 0 7 6 12 14 12 7 0 20 7 27 17 13 15 14 15
18 -3 2 -12 -13 -33 -45 -62z m-74 -68 c-8 -8 -23 -20 -34 -25 -15 -7 -13 -3
7 15 31 29 47 35 27 10z m-1653 -399 c1 -214 2 -397 4 -405 1 -8 1 -158 1
-332 l-2 -318 -40 0 -40 0 -2 298 c-1 308 -1 308 6 357 3 17 5 202 5 413 l1
383 33 -3 32 -3 2 -390z m1646 334 c20 -5 37 -16 37 -24 0 -14 -45 -50 -95
-75 -16 -8 -43 -36 -60 -62 -35 -54 -70 -78 -115 -78 -19 0 -49 -12 -75 -30
-43 -29 -43 -29 -92 -15 -26 8 -71 15 -99 15 -40 0 -59 6 -87 28 -20 15 -39
36 -43 46 -9 28 23 48 65 42 30 -4 40 1 70 34 41 44 96 74 114 63 16 -10 56
-4 89 13 44 23 160 53 208 53 25 1 62 -4 83 -10z m-2549 -581 c8 -551 8 -771
0 -793 -4 -9 -19 -15 -40 -15 l-34 0 -2 128 c0 70 -2 150 -3 177 -1 28 0 265
3 528 l5 477 32 0 32 0 7 -502z m2655 492 c37 19 30 10 -59 -86 -19 -20 -37
-43 -41 -52 -3 -8 -19 -20 -36 -27 -29 -12 -34 -12 -58 11 l-26 24 20 28 c26
37 35 44 101 80 38 21 58 27 67 21 8 -7 19 -7 32 1z m-6119 -369 c0 -42 -58
-56 -83 -20 -21 29 -10 58 27 73 29 11 32 11 43 -12 7 -13 13 -32 13 -41z
m6326 -74 c8 -23 9 -37 3 -37 -6 0 -7 -14 -3 -35 5 -30 3 -35 -12 -35 -14 0
-15 -3 -6 -12 14 -14 17 -52 3 -44 -4 3 -6 -5 -4 -18 3 -13 0 -33 -6 -43 -7
-14 -7 -23 1 -31 8 -8 9 -12 1 -12 -17 0 -24 -29 -12 -51 7 -15 6 -28 -5 -50
-8 -16 -12 -37 -9 -45 3 -7 0 -14 -7 -14 -7 0 -10 -8 -7 -20 3 -11 1 -20 -4
-20 -4 0 -6 -6 -4 -12 3 -7 1 -35 -3 -63 -5 -37 -12 -50 -24 -50 -30 0 -44
-22 -30 -45 16 -27 15 -41 -3 -34 -10 4 -18 -2 -24 -17 -8 -20 -5 -28 17 -46
15 -13 21 -23 13 -23 -8 0 -11 -7 -8 -19 4 -15 1 -18 -12 -14 -9 3 -22 10 -28
16 -7 5 -13 6 -13 1 0 -5 -4 -4 -8 1 -4 6 -28 20 -53 32 -36 17 -49 19 -59 10
-10 -9 -11 -9 -6 0 3 6 2 14 -4 18 -5 3 -10 0 -10 -7 0 -10 -2 -10 -9 1 -5 7
-11 9 -14 4 -3 -5 25 -23 61 -41 67 -32 148 -92 125 -92 -8 0 -11 -11 -9 -30
2 -16 -1 -30 -5 -30 -5 0 -9 -4 -9 -9 0 -5 -5 -22 -12 -38 -6 -15 -10 -34 -9
-40 3 -18 -6 -16 -37 6 -51 35 -216 102 -350 141 -71 20 -73 22 -68 48 14 68
37 233 57 411 11 107 25 205 30 217 4 13 30 34 58 49 60 30 61 30 61 7 0 -15
6 -18 30 -14 17 2 30 10 30 17 0 7 7 18 15 25 12 10 15 10 16 -1 0 -8 4 -4 9
8 11 26 50 51 50 31 1 -8 5 -7 14 5 14 18 36 23 36 8 0 -5 7 -12 16 -15 8 -3
12 -2 9 4 -3 6 1 13 9 16 9 3 14 10 11 15 -10 15 31 28 73 22 28 -4 42 -2 42
6 0 6 5 11 11 11 5 0 7 -5 3 -11 -4 -7 -1 -10 7 -7 8 3 13 13 11 22 -2 13 3
16 24 13 21 -3 30 -12 40 -40z m-4119 -409 c-4 -244 -7 -444 -7 -445 0 -2 -15
-3 -34 -3 -31 0 -34 3 -38 38 -8 60 -11 829 -4 841 4 6 26 11 48 11 l41 0 -6
-442z m-217 7 c-1 -234 -3 -432 -6 -440 -4 -9 -19 -15 -40 -15 -30 0 -34 3
-34 28 0 15 -2 213 -5 440 l-6 412 46 0 45 0 0 -425z m-1386 409 c14 -5 16
-48 16 -380 0 -243 4 -374 10 -374 13 0 12 -21 14 335 l1 310 40 0 40 0 2
-319 c1 -176 4 -325 7 -332 3 -8 1 -16 -4 -19 -6 -4 -10 -24 -10 -46 0 -38 -1
-39 -34 -39 -34 0 -35 1 -38 48 -2 34 -7 47 -18 47 -14 0 -17 -8 -19 -67 -1
-25 -5 -28 -36 -28 l-35 0 0 53 c0 28 -2 207 -5 397 -7 390 -4 420 30 420 13
0 30 -3 39 -6z m4341 -208 c5 -136 2 -630 -4 -653 -1 -2 -17 -3 -36 -3 l-35 0
0 413 c0 228 3 417 7 420 3 4 19 7 34 7 l27 0 7 -184z m-2845 -232 c-1 -190 1
-348 4 -352 3 -3 1 -11 -4 -18 -6 -6 -10 -16 -9 -20 4 -26 -4 -34 -36 -34 -30
0 -35 3 -35 23 0 12 -3 178 -6 370 -3 191 -3 354 0 362 3 10 19 15 46 15 l41
0 -1 -346z m1254 297 c6 -10 7 -640 1 -681 -2 -14 -4 -28 -4 -32 -1 -5 -17 -8
-36 -8 l-35 0 0 113 c-1 157 -1 589 0 605 0 14 66 17 74 3z m-2411 -386 c-2
-149 -3 -285 -3 -303 0 -30 -2 -32 -34 -32 -32 0 -34 2 -38 43 -2 23 -6 160
-7 305 l-3 263 44 -3 43 -3 -2 -270z m5360 230 c-3 -9 -8 -14 -10 -11 -3 3 -2
9 2 15 9 16 15 13 8 -4z m-2262 -47 c2 -7 3 -127 1 -265 l-3 -253 -34 0 c-19
0 -36 3 -37 8 -9 43 -12 498 -3 512 9 14 72 12 76 -2z m1015 1 c3 -6 3 -125
-1 -265 l-7 -254 -34 0 -34 0 0 265 0 265 34 0 c19 0 38 -5 42 -11z m-906
-289 l0 -230 -40 0 -40 0 0 230 0 230 40 0 40 0 0 -230z m1227 172 c9 -5 9
-19 3 -47 -11 -44 -4 -110 16 -169 8 -21 14 -72 14 -112 l0 -74 -33 0 -34 0
-6 122 c-4 66 -7 159 -7 205 0 72 2 83 18 83 9 0 22 -4 29 -8z m-541 -212 c0
-91 -2 -171 -4 -177 -2 -7 -19 -13 -38 -13 l-34 0 0 173 c0 96 3 177 7 181 4
4 21 6 38 4 l30 -3 1 -165z m-576 -20 l0 -170 -40 0 -40 0 0 170 0 170 40 0
40 0 0 -170z m-2958 -62 c2 -29 2 -65 0 -80 -4 -25 -8 -28 -43 -28 l-39 0 0
80 0 80 39 0 39 0 4 -52z m4185 -20 c26 -18 33 -30 33 -55 0 -31 -2 -33 -35
-33 -19 0 -35 3 -35 8 -1 4 -3 28 -5 55 -2 26 -1 47 2 47 4 0 22 -10 40 -22z
m-4077 -7 c5 -11 7 -33 4 -50 -6 -29 -10 -31 -47 -31 -22 0 -38 3 -34 6 3 3 2
17 -4 31 -13 35 5 63 41 63 19 0 33 -7 40 -19z m4189 -47 c17 -4 31 -13 31
-21 0 -22 -74 -13 -78 10 -4 19 1 20 47 11z m88 -30 c-3 -3 -12 -4 -19 -1 -8
3 -5 6 6 6 11 1 17 -2 13 -5z"/>
<path d="M7060 5471 c0 -11 -3 -26 -6 -35 -4 -11 -1 -16 10 -16 9 0 16 6 16
14 0 8 3 21 6 29 3 8 -2 17 -10 20 -11 5 -16 0 -16 -12z"/>
<path d="M7110 5460 c0 -5 5 -10 11 -10 5 0 7 5 4 10 -3 6 -8 10 -11 10 -2 0
-4 -4 -4 -10z"/>
<path d="M7205 5420 c-3 -5 -1 -10 4 -10 6 0 11 5 11 10 0 6 -2 10 -4 10 -3 0
-8 -4 -11 -10z"/>
<path d="M6533 5513 c9 -2 25 -2 35 0 9 3 1 5 -18 5 -19 0 -27 -2 -17 -5z"/>
<path d="M6723 4903 c-15 -5 -17 -23 -4 -23 5 0 11 7 15 15 3 8 4 15 3 14 -1
0 -8 -3 -14 -6z"/>
<path d="M5923 4725 c4 -8 2 -17 -3 -20 -6 -4 -10 -12 -9 -18 0 -9 2 -9 6 1 7
18 21 14 28 -9 4 -11 9 -19 11 -16 6 5 -24 77 -32 77 -3 0 -4 -7 -1 -15z"/>
<path d="M5960 4635 c0 -5 5 -17 10 -25 5 -8 10 -10 10 -5 0 6 -5 17 -10 25
-5 8 -10 11 -10 5z"/>
<path d="M6580 4630 c0 -5 5 -10 11 -10 5 0 7 5 4 10 -3 6 -8 10 -11 10 -2 0
-4 -4 -4 -10z"/>
<path d="M6049 4533 c-11 -3 -15 -12 -11 -29 6 -34 18 -38 17 -6 0 41 32 41
50 0 8 -18 14 -28 15 -21 0 7 -5 24 -12 38 -11 24 -23 28 -59 18z"/>
<path d="M5860 4482 c0 -5 7 -9 15 -9 8 0 15 4 15 9 0 4 -7 8 -15 8 -8 0 -15
-4 -15 -8z"/>
<path d="M6090 4476 c0 -7 -3 -28 -6 -45 -6 -26 -4 -30 10 -25 9 3 13 11 9 18
-4 6 -6 23 -4 38 1 16 0 28 -3 28 -3 0 -6 -6 -6 -14z"/>
<path d="M6549 4469 c0 -2 -2 -13 -4 -23 -4 -21 18 -60 27 -50 4 3 2 19 -3 36
-8 28 -18 47 -20 37z"/>
<path d="M5871 4455 c1 -19 18 -51 18 -35 0 8 -4 22 -9 30 -5 8 -9 11 -9 5z"/>
<path d="M6120 4445 c0 -5 5 -17 10 -25 5 -8 10 -10 10 -5 0 6 -5 17 -10 25
-5 8 -10 11 -10 5z"/>
<path d="M6189 4403 c-13 -16 -12 -17 4 -4 16 13 21 21 13 21 -2 0 -10 -8 -17
-17z"/>
<path d="M5890 4390 c0 -5 5 -10 11 -10 5 0 7 5 4 10 -3 6 -8 10 -11 10 -2 0
-4 -4 -4 -10z"/>
<path d="M6146 4370 c9 -41 53 -158 53 -141 1 16 -49 171 -55 171 -2 0 -1 -13
2 -30z"/>
<path d="M6098 4333 c6 -2 18 -2 25 0 6 3 1 5 -13 5 -14 0 -19 -2 -12 -5z"/>
<path d="M6105 4310 c-7 -12 2 -12 30 0 19 8 19 9 -2 9 -12 1 -25 -3 -28 -9z"/>
<path d="M6238 4293 c7 -3 16 -2 19 1 4 3 -2 6 -13 5 -11 0 -14 -3 -6 -6z"/>
<path d="M6134 4234 c-2 -24 -1 -25 17 -8 24 21 24 29 2 31 -12 1 -18 -6 -19
-23z"/>
<path d="M6260 4120 c0 -5 7 -10 15 -10 8 0 15 5 15 10 0 6 -7 10 -15 10 -8 0
-15 -4 -15 -10z"/>
<path d="M5547 4916 c-3 -8 -2 -18 4 -22 16 -9 22 2 11 21 -8 15 -10 16 -15 1z"/>
<path d="M5370 4820 c0 -5 5 -10 11 -10 5 0 7 5 4 10 -3 6 -8 10 -11 10 -2 0
-4 -4 -4 -10z"/>
<path d="M7978 4893 c-25 -29 -48 -80 -48 -108 0 -14 -3 -24 -7 -22 -14 9 -1
-82 12 -93 43 -36 94 28 116 145 10 56 10 60 -11 77 -28 23 -43 23 -62 1z m40
-106 c24 -19 13 -30 -25 -24 -40 7 -59 20 -49 35 6 11 55 4 74 -11z"/>
<path d="M7818 4818 c6 -6 18 -8 28 -6 14 3 12 5 -9 10 -19 3 -25 2 -19 -4z"/>
<path d="M7185 4769 c-4 -6 -5 -12 -2 -15 2 -3 7 2 10 11 7 17 1 20 -8 4z"/>
<path d="M7783 4754 c-4 -11 1 -22 12 -31 25 -18 40 -12 40 17 0 28 -42 39
-52 14z m22 -4 c3 -5 1 -10 -4 -10 -6 0 -11 5 -11 10 0 6 2 10 4 10 3 0 8 -4
11 -10z"/>
<path d="M7070 4720 c0 -5 5 -10 10 -10 6 0 10 5 10 10 0 6 -4 10 -10 10 -5 0
-10 -4 -10 -10z"/>
<path d="M7766 4684 c-9 -23 -7 -34 4 -34 5 0 7 7 4 15 -7 18 7 20 24 3 6 -6
14 -9 17 -6 3 3 -5 12 -19 21 -22 15 -25 15 -30 1z"/>
<path d="M8015 4659 c-4 -6 -5 -12 -2 -15 2 -3 7 2 10 11 7 17 1 20 -8 4z"/>
<path d="M7750 4596 c0 -28 28 -42 47 -23 19 19 5 47 -23 47 -19 0 -24 -5 -24
-24z m30 -1 c10 -12 10 -15 -4 -15 -9 0 -16 7 -16 15 0 8 2 15 4 15 2 0 9 -7
16 -15z"/>
<path d="M7731 4536 c-9 -10 -7 -19 9 -37 17 -21 21 -22 30 -9 5 8 10 25 10
38 0 25 -30 31 -49 8z m34 -16 c3 -5 -1 -10 -9 -10 -9 0 -16 5 -16 10 0 6 4
10 9 10 6 0 13 -4 16 -10z"/>
<path d="M7811 4543 c-1 -6 -4 -20 -7 -30 -5 -17 -5 -17 6 0 6 10 9 23 6 30
-3 9 -5 9 -5 0z"/>
<path d="M7150 4486 c0 -9 5 -16 10 -16 6 0 10 4 10 9 0 6 -4 13 -10 16 -5 3
-10 -1 -10 -9z"/>
<path d="M7116 4482 c-3 -5 1 -9 9 -9 8 0 15 4 15 9 0 4 -4 8 -9 8 -6 0 -12
-4 -15 -8z"/>
<path d="M7791 4472 c-17 -31 -13 -40 5 -14 9 13 14 26 11 29 -3 2 -10 -4 -16
-15z"/>
<path d="M7727 4464 c-3 -3 -3 -12 0 -20 4 -10 0 -12 -13 -8 -18 7 -18 6 -2
-12 17 -18 18 -17 36 2 10 11 17 25 14 32 -4 13 -24 16 -35 6z"/>
<path d="M7759 4423 c-1 -5 -1 -15 0 -24 1 -9 -8 -40 -19 -69 -11 -29 -19 -54
-17 -57 7 -7 47 95 47 121 0 13 6 27 13 29 7 3 5 6 -5 6 -10 1 -19 -2 -19 -6z"/>
<path d="M7711 4391 c-8 -5 -10 -14 -6 -21 6 -10 2 -12 -13 -8 -28 8 -29 -8
-2 -17 22 -7 50 14 50 39 0 18 -8 20 -29 7z"/>
<path d="M7656 4324 c-3 -9 -6 -24 -6 -35 0 -10 -4 -19 -10 -19 -5 0 -10 -5
-10 -11 0 -8 4 -8 15 1 8 6 23 9 35 5 16 -5 22 0 30 21 16 40 -5 57 -30 25
l-18 -25 5 27 c6 29 -1 36 -11 11z"/>
<path d="M7735 4232 c-10 -7 -18 -32 -10 -32 2 0 9 9 15 20 12 22 11 24 -5 12z"/>
<path d="M7545 4150 c-10 -11 -16 -22 -13 -25 3 -3 13 6 22 20 20 30 16 32 -9
5z"/>
<path d="M7707 4130 c-9 -23 -25 -44 -39 -49 -13 -6 -17 -10 -10 -10 19 -1 72
31 72 44 0 5 3 20 6 33 11 38 -12 24 -29 -18z"/>
<path d="M5610 4212 c0 -5 7 -9 15 -9 8 0 12 4 9 9 -3 4 -9 8 -15 8 -5 0 -9
-4 -9 -8z"/>
<path d="M6917 3980 c-8 -22 -12 -40 -7 -40 5 0 11 13 15 29 4 20 15 33 33 40
l27 9 -26 1 c-21 1 -29 -6 -42 -39z"/>
<path d="M6930 3950 c0 -5 5 -10 11 -10 5 0 7 5 4 10 -3 6 -8 10 -11 10 -2 0
-4 -4 -4 -10z"/>
<path d="M6736 2563 c-6 -14 -5 -15 5 -6 7 7 10 15 7 18 -3 3 -9 -2 -12 -12z"/>
<path d="M6710 2490 c-13 -8 -13 -10 2 -10 9 0 20 5 23 10 8 13 -5 13 -25 0z"/>
<path d="M6693 2443 c4 -3 2 -12 -4 -20 -15 -17 -2 -17 16 1 14 14 10 26 -8
26 -6 0 -7 -3 -4 -7z"/>
<path d="M6568 2423 c7 -3 16 -2 19 1 4 3 -2 6 -13 5 -11 0 -14 -3 -6 -6z"/>
<path d="M6553 2373 c22 -6 22 -19 1 -27 -9 -4 -15 -9 -12 -11 11 -11 38 8 38
26 0 13 -7 19 -22 18 -17 -1 -19 -2 -5 -6z"/>
<path d="M6677 2360 c-3 -11 -1 -20 4 -20 5 0 9 5 9 11 0 5 6 7 13 3 8 -5 8
-2 -2 9 -17 21 -18 21 -24 -3z"/>
<path d="M6474 2334 c-12 -12 -18 -26 -14 -31 12 -13 21 -61 12 -66 -4 -3 -26
-2 -49 3 -23 4 -40 3 -37 -1 3 -5 23 -12 45 -15 21 -4 39 -12 39 -18 0 -23
-32 -56 -53 -56 -20 -1 -20 -2 -4 -11 9 -5 22 -7 29 -3 8 5 9 -3 5 -27 -4 -19
-9 -47 -13 -64 -5 -28 -4 -29 10 -11 8 10 18 39 21 65 3 25 11 70 17 99 9 41
9 61 0 85 -10 26 -9 34 5 49 24 26 12 28 -13 2z"/>
<path d="M6560 2309 c0 -5 -4 -7 -10 -4 -5 3 -10 1 -10 -4 0 -6 7 -11 15 -11
8 0 15 7 15 15 0 8 -2 15 -5 15 -3 0 -5 -5 -5 -11z"/>
<path d="M6654 2295 c-4 -9 -13 -14 -20 -11 -8 3 -14 1 -14 -3 0 -21 31 -20
39 2 7 17 10 18 14 7 14 -41 16 -43 14 -16 -2 33 -24 46 -33 21z"/>
<path d="M6530 2271 c0 -5 6 -12 13 -15 8 -3 6 -9 -8 -21 -17 -14 -18 -17 -5
-25 12 -8 12 -10 -5 -11 l-20 0 20 -8 c17 -7 21 -3 28 27 4 20 5 42 3 49 -6
15 -26 18 -26 4z"/>
<path d="M6636 2214 c18 -15 18 -15 -9 -9 -32 6 -29 -9 2 -18 22 -5 46 16 36
33 -3 5 -16 10 -28 10 -20 0 -20 0 -1 -16z"/>
<path d="M6337 2200 c-9 -34 -9 -42 2 -35 5 3 12 1 16 -5 3 -5 11 -10 17 -10
6 0 4 8 -4 18 -9 9 -18 26 -20 37 -3 18 -5 17 -11 -5z"/>
<path d="M6510 2170 c0 -7 24 -20 36 -20 13 0 1 19 -16 23 -11 3 -20 2 -20 -3z"/>
<path d="M6590 2139 c0 -5 5 -7 10 -4 6 3 10 -1 10 -9 0 -10 -6 -13 -15 -10
-27 11 -16 -5 15 -21 39 -20 40 -20 40 14 0 21 -6 30 -22 35 -32 8 -38 7 -38
-5z m50 -29 c0 -5 -4 -10 -10 -10 -5 0 -10 5 -10 10 0 6 5 10 10 10 6 0 10 -4
10 -10z"/>
<path d="M6516 2127 c-23 -17 -28 -64 -8 -72 8 -3 18 -2 21 1 3 4 0 9 -6 11
-18 6 -16 33 2 33 8 0 15 9 15 20 0 24 -1 24 -24 7z"/>
<path d="M6316 2092 c-2 -4 -6 -22 -8 -41 -3 -31 0 -35 34 -47 34 -12 36 -11
42 9 3 12 6 29 6 37 0 13 -1 13 -10 0 -8 -13 -10 -13 -10 2 0 9 6 19 13 22 6
3 2 3 -10 0 -13 -3 -23 -1 -23 4 0 12 -28 24 -34 14z m21 -34 c-3 -8 -6 -5 -6
6 -1 11 2 17 5 13 3 -3 4 -12 1 -19z"/>
<path d="M6620 2034 c0 -10 -5 -14 -15 -10 -43 17 -50 19 -40 8 6 -6 22 -13
36 -17 21 -5 27 -2 32 14 3 12 1 21 -4 21 -5 0 -9 -7 -9 -16z"/>
<path d="M6405 2000 c-3 -5 -1 -10 4 -10 6 0 11 5 11 10 0 6 -2 10 -4 10 -3 0
-8 -4 -11 -10z"/>
<path d="M6450 1979 c0 -5 5 -7 10 -4 6 3 10 8 10 11 0 2 -4 4 -10 4 -5 0 -10
-5 -10 -11z"/>
</g>
</svg>
