<svg xmlns="http://www.w3.org/2000/svg" width="145" height="134" viewBox="0 0 145 134" fill="none"><g id="Group 12"><g id="Group"><path id="Vector" d="M144.554 71.5247V28.9011C144.554 24.2865 136.499 21.7971 128.927 21.7971C121.349 21.7971 113.299 24.2865 113.299 28.9011V71.5247C113.299 76.1393 121.354 78.6286 128.927 78.6286C136.504 78.6286 144.554 76.1393 144.554 71.5247ZM128.927 24.6414C136.731 24.6414 141.715 27.1672 141.715 28.9056C141.715 30.644 136.731 33.1698 128.927 33.1698C121.122 33.1698 116.139 30.644 116.139 28.9056C116.139 27.1672 121.126 24.6414 128.927 24.6414ZM116.139 33.1015C119.151 35.0038 124.13 36.005 128.927 36.005C133.723 36.005 138.702 35.0038 141.715 33.1015V37.4294C141.715 39.1679 136.731 41.6936 128.927 41.6936C121.122 41.6936 116.139 39.1679 116.139 37.4294V33.1015ZM116.139 41.6253C119.151 43.5276 124.13 44.5288 128.927 44.5288C133.719 44.5288 138.697 43.5322 141.715 41.6299V45.9487C141.715 47.6871 136.731 50.2129 128.927 50.2129C121.122 50.2129 116.139 47.6871 116.139 45.9487V41.6253ZM116.139 50.1582C119.151 52.056 124.135 53.0526 128.927 53.0526C133.719 53.0526 138.697 52.056 141.715 50.1582V54.477C141.715 56.2155 136.731 58.7412 128.927 58.7412C121.122 58.7412 116.139 56.2155 116.139 54.477V50.1582ZM116.139 58.6775C119.151 60.5798 124.13 61.581 128.927 61.581C133.719 61.581 138.697 60.5843 141.715 58.6866V63.0009C141.715 64.7393 136.731 67.265 128.927 67.265C121.122 67.265 116.139 64.7393 116.139 63.0009V58.6775ZM116.139 71.5247V67.2059C119.151 69.1081 124.135 70.1048 128.927 70.1048C133.719 70.1048 138.697 69.1081 141.715 67.2104V71.5292C141.715 73.2677 136.731 75.7934 128.927 75.7934C121.126 75.7888 116.139 73.2631 116.139 71.5247Z" fill="#034980"></path><path id="Vector_2" d="M15.6278 74.4189C8.05513 74.4189 6.10352e-05 76.9083 6.10352e-05 81.5229V98.5705C6.10352e-05 103.185 8.05513 105.674 15.6278 105.674C23.205 105.674 31.2556 103.185 31.2556 98.5705V81.5229C31.2556 76.9083 23.205 74.4189 15.6278 74.4189ZM28.4158 98.5705C28.4158 100.309 23.4326 102.835 15.6278 102.835C7.82304 102.835 2.83981 100.309 2.83981 98.5705V94.2472C5.8525 96.1494 10.8312 97.1506 15.6278 97.1506C20.4199 97.1506 25.3986 96.154 28.4158 94.2563V98.5705ZM28.4158 90.0467C28.4158 91.7851 23.4326 94.3109 15.6278 94.3109C7.82304 94.3109 2.83981 91.7851 2.83981 90.0467V85.7233C5.8525 87.6256 10.8312 88.6223 15.6278 88.6223C20.4199 88.6223 25.3986 87.6256 28.4158 85.7233V90.0467ZM15.6278 85.7825C7.82304 85.7825 2.83981 83.2568 2.83981 81.5183C2.83981 79.7799 7.82304 77.2541 15.6278 77.2541C23.4326 77.2541 28.4158 79.7799 28.4158 81.5183C28.4158 83.2568 23.4326 85.7825 15.6278 85.7825Z" fill="#034980"></path></g><g id="Group_2"><path id="Vector_3" d="M78.5211 51.5649C78.1479 51.4694 77.7611 51.524 77.438 51.7197C76.4868 52.284 75.3764 52.4432 74.2614 52.152C73.1601 51.8607 72.2181 51.1462 71.6674 50.186C71.4763 49.8583 71.1668 49.6171 70.8073 49.517C70.4387 49.4124 70.0473 49.467 69.7242 49.6581L58.5745 56.0976C57.8965 56.4935 57.6598 57.3628 58.0512 58.0454C58.4107 58.6734 59.2526 58.9829 59.9944 58.5687L70.0382 52.7664C70.9621 53.7949 72.1817 54.5549 73.5424 54.9098C74.9077 55.2648 76.3094 55.2147 77.5882 54.7779L79.4995 58.0545C79.8954 58.7326 80.7738 58.9692 81.4428 58.5642C82.1208 58.1683 82.3484 57.2945 81.9524 56.6164L79.3903 52.2248C79.2037 51.9017 78.8851 51.6605 78.5211 51.5649Z" fill="#034980"></path><path id="Vector_4" d="M87.9823 58.5732C88.6559 58.2 88.8925 57.3081 88.5057 56.6254L78.6621 39.5323C78.471 39.2046 78.1615 38.9725 77.7975 38.8679C77.4334 38.7632 77.042 38.8178 76.7189 39.0089L47.1381 56.1021C46.46 56.498 46.228 57.3672 46.6148 58.0498C47.0107 58.7325 47.8936 58.9509 48.558 58.5732L76.9055 42.19L86.0391 58.0498C86.4396 58.7279 87.2679 58.9691 87.9823 58.5732Z" fill="#034980"></path><path id="Vector_5" d="M43.2926 104.346H100.179C100.961 104.346 101.599 103.704 101.599 102.922V89.8515C103.251 89.2598 104.443 87.6807 104.443 85.8285V80.1308C104.443 78.2785 103.251 76.6948 101.599 76.1078V63.0376C101.599 62.2549 100.961 61.6132 100.179 61.6132H43.2926C40.9443 61.6132 39.0238 59.6927 39.0238 57.3399C39.0238 54.9871 40.9398 53.0666 43.2926 53.0666H46.3098C47.0926 53.0666 47.7342 52.425 47.7342 51.6422C47.7342 50.8595 47.0971 50.2178 46.3098 50.2178H43.2926C39.3697 50.2178 36.1841 53.4125 36.1841 57.3399V97.2284C36.1841 101.156 39.3743 104.346 43.2926 104.346ZM101.603 80.1308V85.8285C101.603 86.6112 100.966 87.2529 100.183 87.2529H91.6503C90.8675 87.2529 90.2259 86.6112 90.2259 85.8285V80.1308C90.2259 79.348 90.863 78.7063 91.6503 78.7063H100.183C100.966 78.7063 101.603 79.3435 101.603 80.1308ZM39.0284 63.0194C40.2162 63.9205 41.6907 64.4575 43.2971 64.4575H98.7633V75.8529H91.6548C89.3066 75.8529 87.3861 77.7734 87.3861 80.1262V85.8239C87.3861 88.1767 89.302 90.0972 91.6548 90.0972H98.7633V101.493H43.2926C40.9443 101.493 39.0238 99.5722 39.0238 97.2193V63.0194H39.0284Z" fill="#034980"></path></g><path id="Vector_6" d="M95.4412 0.0803821C94.8723 0.280621 94.4901 0.822177 94.4901 1.42744V9.99221H56.0123C55.2296 9.99221 54.5879 10.6339 54.5879 11.4212V19.986C54.5879 20.7733 55.2296 21.4149 56.0123 21.4149H94.4901V29.9797C94.4901 30.5895 94.8723 31.1265 95.4412 31.3268C96.0146 31.527 96.6472 31.345 97.0295 30.8717L108.429 16.6001C108.634 16.3362 108.739 16.0267 108.739 15.7081C108.739 15.3896 108.634 15.0801 108.429 14.8162L97.0295 0.535471C96.6517 0.0621785 96.0146 -0.119857 95.4412 0.0803821ZM105.49 15.699L97.3389 25.9021V19.9814C97.3389 19.1941 96.6973 18.5524 95.9145 18.5524H57.4367V12.8456H95.9145C96.6973 12.8456 97.3389 12.2039 97.3389 11.4166V5.49594L105.49 15.699Z" fill="#034980"></path><path id="Vector_7" d="M9.29297 45.4572C9.29297 41.5662 12.4558 38.4033 16.3468 38.4033C20.2379 38.4033 23.4007 41.5662 23.4007 45.4572C23.4007 49.3482 20.2379 52.5111 16.3468 52.5111C12.4558 52.5111 9.29297 49.3482 9.29297 45.4572ZM12.1145 45.4572C12.1145 47.7918 14.0122 49.6895 16.3468 49.6895C18.6814 49.6895 20.5792 47.7918 20.5792 45.4572C20.5792 43.1226 18.6814 41.2249 16.3468 41.2249C14.0122 41.2249 12.1145 43.1271 12.1145 45.4572Z" fill="#034980"></path><path id="Vector_8" d="M111.383 94.2521C111.383 90.3611 114.546 87.1982 118.437 87.1982C122.328 87.1982 125.491 90.3611 125.491 94.2521C125.491 98.1431 122.328 101.306 118.437 101.306C114.55 101.306 111.383 98.1386 111.383 94.2521ZM114.204 94.2521C114.204 96.5867 116.102 98.4844 118.437 98.4844C120.771 98.4844 122.669 96.5867 122.669 94.2521C122.669 91.9175 120.771 90.0198 118.437 90.0198C116.102 90.0198 114.204 91.9175 114.204 94.2521Z" fill="#034980"></path><path id="Vector_9" d="M24.0014 30.8262C24.0014 23.7997 29.7173 18.0837 36.7439 18.0837C43.7705 18.0837 49.4864 23.7997 49.4864 30.8262C49.4864 37.8528 43.7705 43.5687 36.7439 43.5687C29.7173 43.5687 24.0014 37.8528 24.0014 30.8262ZM26.8321 30.8262C26.8321 36.2918 31.2783 40.7381 36.7439 40.7381C42.2095 40.7381 46.6557 36.2918 46.6557 30.8262C46.6557 25.3606 42.2095 20.9144 36.7439 20.9144C31.2783 20.9144 26.8321 25.3652 26.8321 30.8262Z" fill="#034980"></path><path id="Vector_10" d="M101.462 121.143C101.462 114.116 107.178 108.4 114.205 108.4C121.231 108.4 126.947 114.116 126.947 121.143C126.947 128.169 121.231 133.885 114.205 133.885C107.178 133.885 101.462 128.169 101.462 121.143ZM104.293 121.143C104.293 126.608 108.739 131.055 114.205 131.055C119.67 131.055 124.116 126.608 124.116 121.143C124.116 115.677 119.67 111.231 114.205 111.231C108.739 111.231 104.293 115.682 104.293 121.143Z" fill="#034980"></path></g></svg>