<svg xmlns="http://www.w3.org/2000/svg" width="163" height="133" viewBox="0 0 163 133" fill="none"><g id="Group 16"><g id="Group 15"><g id="Group"><path id="Vector" d="M64.3723 75.5493H62.0058C59.6575 75.5493 57.7416 73.6333 57.7416 71.2851C57.7416 68.9368 59.653 67.0209 62.0058 67.0209H64.3723V64.1812H62.0058C58.0875 64.1812 54.9019 67.3668 54.9019 71.2851C54.9019 75.2034 58.0875 78.389 62.0058 78.389H64.3723V75.5493Z" fill="#034980"></path><path id="Vector_2" d="M93.7346 75.5493H96.101C98.4493 75.5493 100.365 73.6333 100.365 71.2851C100.365 68.9368 98.4538 67.0209 96.101 67.0209H93.7346V64.1812H96.101C100.019 64.1812 103.205 67.3668 103.205 71.2851C103.205 75.2034 100.019 78.389 96.101 78.389H93.7346V75.5493Z" fill="#034980"></path><path id="Vector_3" d="M60.1445 66.2565V60.6999C60.1445 60.6999 59.0841 44.1528 77.6745 44.1528H79.0443" stroke="#034980" stroke-width="2" stroke-miterlimit="10"></path><path id="Vector_4" d="M97.9487 66.2565V60.6999C97.9487 60.6999 99.0091 44.1528 80.4187 44.1528H79.0489" stroke="#034980" stroke-width="2" stroke-miterlimit="10"></path><path id="Vector_5" d="M79.0535 82.8308C85.4111 82.9036 93.6026 83.3587 97.7986 77.0056" stroke="#034980" stroke-width="2" stroke-miterlimit="10"></path><g id="Group_2"><path id="Vector_6" d="M144.054 128.272V124.008H148.318C149.101 124.008 149.738 123.37 149.738 122.588V105.54C149.738 104.757 149.101 104.12 148.318 104.12H144.054V88.4924C144.054 87.7096 143.417 87.0725 142.634 87.0725C141.851 87.0725 141.214 87.7096 141.214 88.4924V104.12H136.95C136.167 104.12 135.53 104.757 135.53 105.54V122.588C135.53 123.37 136.167 124.008 136.95 124.008H141.214V128.272C141.214 129.054 141.851 129.692 142.634 129.692C143.417 129.692 144.054 129.054 144.054 128.272ZM138.37 121.168V106.96H146.893V121.168H138.37Z" fill="#034980"></path><path id="Vector_7" d="M121.322 98.395C121.322 99.1823 121.959 99.8148 122.742 99.8148H127.006V121.127C127.006 121.909 127.643 122.547 128.426 122.547C129.209 122.547 129.846 121.909 129.846 121.127V99.8148H134.11C134.893 99.8148 135.53 99.1777 135.53 98.395V92.7109C135.53 91.9236 134.893 91.291 134.11 91.291H129.846V75.6633C129.846 74.876 129.209 74.2434 128.426 74.2434C127.643 74.2434 127.006 74.8805 127.006 75.6633V91.291H122.742C121.959 91.291 121.322 91.9282 121.322 92.7109V98.395ZM124.162 94.1353H132.686V96.9751H124.162V94.1353Z" fill="#034980"></path><path id="Vector_8" d="M156.614 101.253V96.9887H160.878C161.661 96.9887 162.298 96.3515 162.298 95.5688V84.2007C162.298 83.4179 161.661 82.7808 160.878 82.7808H156.614V67.153C156.614 66.3703 155.977 65.7332 155.194 65.7332C154.412 65.7332 153.774 66.3703 153.774 67.153V82.7808H149.51C148.727 82.7808 148.09 83.4179 148.09 84.2007V95.5688C148.09 96.3515 148.727 96.9887 149.51 96.9887H153.774V101.253C153.774 102.036 154.412 102.673 155.194 102.673C155.977 102.673 156.614 102.036 156.614 101.253ZM150.93 94.1489V85.6251H159.454V94.1489H150.93Z" fill="#034980"></path></g><path id="Vector_9" d="M121.372 28.1152C121.372 24.2241 124.535 21.0613 128.426 21.0613C132.317 21.0613 135.48 24.2241 135.48 28.1152C135.48 32.0062 132.317 35.169 128.426 35.169C124.535 35.169 121.372 32.0016 121.372 28.1152ZM124.194 28.1152C124.194 30.4498 126.091 32.3475 128.426 32.3475C130.761 32.3475 132.658 30.4498 132.658 28.1152C132.658 25.7805 130.761 23.8828 128.426 23.8828C126.091 23.8828 124.194 25.7805 124.194 28.1152Z" fill="#034980"></path><path id="Vector_10" d="M27.9105 125.459C27.9105 121.568 31.0734 118.405 34.9644 118.405C38.8554 118.405 42.0183 121.568 42.0183 125.459C42.0183 129.35 38.8554 132.513 34.9644 132.513C31.0734 132.513 27.9105 129.35 27.9105 125.459ZM30.7321 125.459C30.7321 127.794 32.6298 129.691 34.9644 129.691C37.299 129.691 39.1967 127.794 39.1967 125.459C39.1967 123.125 37.299 121.227 34.9644 121.227C32.6298 121.227 30.7321 123.129 30.7321 125.459Z" fill="#034980"></path><path id="Vector_11" d="M-6.10352e-05 114.064C-6.10352e-05 107.037 5.71585 101.321 12.7424 101.321C19.769 101.321 25.4849 107.037 25.4849 114.064C25.4849 121.09 19.769 126.806 12.7424 126.806C5.71585 126.806 -6.10352e-05 121.09 -6.10352e-05 114.064ZM2.83059 114.064C2.83059 119.529 7.27681 123.976 12.7424 123.976C18.208 123.976 22.6543 119.529 22.6543 114.064C22.6543 108.598 18.208 104.156 12.7424 104.156C7.27681 104.156 2.83059 108.603 2.83059 114.064Z" fill="#034980"></path><path id="Vector_12" d="M129.891 48.4307C129.891 41.4041 135.607 35.6882 142.634 35.6882C149.66 35.6882 155.376 41.4041 155.376 48.4307C155.376 55.4573 149.66 61.1732 142.634 61.1732C135.607 61.1732 129.891 55.4573 129.891 48.4307ZM132.722 48.4307C132.722 53.8963 137.168 58.3426 142.634 58.3426C148.099 58.3426 152.546 53.8963 152.546 48.4307C152.546 42.9651 148.099 38.5189 142.634 38.5189C137.168 38.5189 132.722 42.9651 132.722 48.4307Z" fill="#034980"></path><path id="Vector_13" d="M79.0443 85.889C80.7132 85.889 82.0661 84.5361 82.0661 82.8672C82.0661 81.1984 80.7132 79.8455 79.0443 79.8455C77.3754 79.8455 76.0225 81.1984 76.0225 82.8672C76.0225 84.5361 77.3754 85.889 79.0443 85.889Z" fill="#034980"></path><g id="Group_3"><path id="Vector_14" d="M109.221 98.4495L84.3234 91.4183C84.5873 91.2727 84.8467 91.1271 85.1016 90.9587L89.8299 87.8049C92.8654 85.7752 94.6812 82.3894 94.6812 78.735V60.1264C94.6812 56.7315 91.9188 53.9736 88.5284 53.9736H69.5876C66.1926 53.9736 63.4257 56.736 63.4257 60.1264V78.735C63.4257 82.3848 65.2415 85.7752 68.2815 87.8049L73.0099 90.9587C73.2602 91.1271 73.5196 91.2773 73.779 91.4229L48.8037 98.4813C46.196 99.4006 44.4485 101.767 44.4485 104.366V112.38C44.4485 113.162 45.0856 113.8 45.8684 113.8C46.6511 113.8 47.2882 113.162 47.2882 112.38V104.366C47.2882 102.968 48.2758 101.681 49.6638 101.185L68.3816 95.901L72.8642 100.384L75.6039 103.123L78.034 105.553C78.3116 105.831 78.6712 105.968 79.0398 105.968C79.3993 105.968 79.7679 105.831 80.0455 105.553L82.4848 103.114L85.2244 100.374L89.7116 95.8873L108.361 101.148C109.831 101.671 110.819 102.959 110.819 104.357V112.371C110.819 113.153 111.456 113.791 112.239 113.791C113.021 113.791 113.658 113.153 113.658 112.371V104.357C113.663 101.763 111.915 99.4006 109.221 98.4495ZM69.8561 85.443C67.608 83.9412 66.2654 81.4382 66.2654 78.7396V60.131C66.2654 58.3061 67.7536 56.8179 69.583 56.8179H88.5238C90.3487 56.8179 91.8369 58.3061 91.8369 60.131V78.7396C91.8369 81.4382 90.4989 83.9458 88.2508 85.443L83.5224 88.5968C80.801 90.4171 77.3013 90.4126 74.5799 88.5968L69.8561 85.443ZM79.0443 102.541L71.5172 95.0135L79.058 92.8837L86.5852 95.009L79.0443 102.541Z" fill="#034980"></path><path id="Vector_15" d="M56.3217 111.751C55.539 111.751 54.9019 112.389 54.9019 113.171V123.056C54.9019 123.839 55.539 124.476 56.3217 124.476C57.1045 124.476 57.7416 123.839 57.7416 123.056V113.176C57.7416 112.393 57.1045 111.751 56.3217 111.751Z" fill="#034980"></path><path id="Vector_16" d="M101.785 111.751C101.002 111.751 100.365 112.389 100.365 113.171V123.056C100.365 123.839 101.002 124.476 101.785 124.476C102.568 124.476 103.205 123.839 103.205 123.056V113.176C103.205 112.393 102.568 111.751 101.785 111.751Z" fill="#034980"></path><path id="Vector_17" d="M69.4786 121.277L69.474 121.263C69.4463 121.268 69.4786 121.277 69.4786 121.277Z" fill="#034980"></path></g><path id="Vector_18" d="M89.5205 33.7994C97.125 31.7151 103.965 28.6342 109.563 24.6977C116.407 33.6675 120.585 44.7762 120.89 56.8269H101.335C101.467 57.3548 101.553 57.8964 101.576 58.4562C101.594 58.8794 101.562 59.2935 101.498 59.6985H118.628V59.6712H120.89C120.585 71.7265 116.407 82.8353 109.563 91.8005C105.649 89.0472 101.121 86.7126 96.1466 84.8422C95.8235 85.7569 95.3092 86.5943 94.6539 87.3133C99.5279 89.1018 103.96 91.35 107.779 94.0168C107.301 94.5811 106.814 95.1318 106.313 95.6733C107.419 95.8326 108.52 96.0192 109.617 96.2331C118.419 86.03 123.748 72.755 123.748 58.2514C123.748 26.1312 97.6211 0 65.4964 0C33.3762 0 7.245 26.1312 7.245 58.2514C7.245 82.1117 21.6713 102.659 42.255 111.651C42.2368 110.628 42.255 109.599 42.3323 108.571C34.9417 105.153 28.4248 100.16 23.2186 94.0213C28.5841 90.276 35.1556 87.3452 42.4734 85.3655C43.957 89.1291 45.7546 92.7562 47.8344 96.224C48.8401 96.0556 49.8459 95.8917 50.8516 95.7325C48.6672 92.2146 46.7922 88.5148 45.2495 84.6647C50.5239 83.4405 56.1352 82.6987 61.9194 82.4803C61.5098 81.6156 61.2504 80.6645 61.1685 79.6678C55.3024 79.9272 49.6047 80.71 44.2437 81.9842C42.8011 77.9157 41.7271 73.7016 41.0444 69.3874C41.0444 69.3874 40.5666 65.4418 40.4892 59.694H55.7893C55.7939 58.7383 55.803 57.7826 55.8075 56.8224H40.4847C40.5165 53.837 40.6713 50.5194 41.0444 47.0971C41.7225 42.7829 42.7965 38.5733 44.2392 34.5048C50.483 35.9884 57.1819 36.8121 64.0765 36.9122V43.0514C65.014 42.792 65.9605 42.5553 66.9162 42.3415V36.9122C73.8108 36.8121 80.5052 35.9884 86.7535 34.5048C87.5864 36.8576 88.2917 39.2605 88.8788 41.6998C89.9574 41.941 91.0223 42.255 92.0053 42.6828C91.3545 39.6655 90.5353 36.6938 89.5205 33.7994ZM41.4722 82.6987C33.8677 84.7876 27.0323 87.8685 21.4347 91.8096C14.5856 82.8398 10.4079 71.7311 10.103 59.6712H14.3489V59.6985H37.6586C37.7359 62.5838 37.9089 65.9378 38.232 69.8379C38.9283 74.2386 40.0159 78.5392 41.4722 82.6987ZM38.6097 44.5077C38.6097 44.5077 37.5812 47.7798 37.6131 56.8269H10.103C10.4079 44.7671 14.5856 33.6584 21.4347 24.6886C27.0277 28.6251 33.8677 31.7106 41.4677 33.7949C40.2526 37.2718 39.2969 40.8533 38.6097 44.5077ZM42.4689 31.1281C35.151 29.1484 28.5796 26.2222 23.2186 22.4768C32.7209 11.2589 46.5965 3.85915 62.1879 2.93987C53.4319 10.7173 46.7012 20.388 42.4689 31.1281ZM64.0765 34.0679C57.5278 33.9724 51.1747 33.2033 45.2449 31.8244C49.3225 21.6349 55.7484 12.4558 64.0765 5.06059V34.0679ZM66.9162 34.0679V5.06514C75.2444 12.4603 81.6657 21.6395 85.7433 31.8289C79.818 33.2033 73.465 33.9724 66.9162 34.0679ZM88.5238 31.1326C84.2915 20.3925 77.5608 10.7219 68.8003 2.93987C84.3962 3.85915 98.2718 11.2589 107.779 22.4814C102.409 26.2222 95.8371 29.153 88.5238 31.1326Z" fill="#034980"></path></g></g></g></svg>