<svg xmlns="http://www.w3.org/2000/svg" width="158" height="134" viewBox="0 0 158 134" fill="none"><g id="Group 13"><g id="Group"><g id="Group_2"><path id="Vector" d="M117.319 46.4976H113.859V48.6103H117.319C119.066 48.6103 120.492 50.0357 120.492 51.7828V105.692H38.0404V51.7828C38.0404 50.0357 39.4658 48.6103 41.2129 48.6103H90.964V46.4976H41.2129C38.2977 46.4976 35.9276 48.8676 35.9276 51.7828V115.206C35.9276 118.121 38.2977 120.491 41.2129 120.491H65.523V123.657C65.523 125.407 64.0976 126.833 62.3471 126.833H58.1216C57.5393 126.833 57.0653 127.307 57.0653 127.889V132.118C57.0653 132.7 57.5393 133.174 58.1216 133.174H100.404C100.986 133.174 101.46 132.7 101.46 132.118V127.889C101.46 127.307 100.986 126.833 100.404 126.833H96.1782C94.4277 126.833 93.0023 125.407 93.0023 123.657V120.491H117.312C120.228 120.491 122.598 118.121 122.598 115.206V51.7828C122.604 48.8676 120.234 46.4976 117.319 46.4976ZM96.1816 128.949H99.3473V131.062H59.1814V128.949H62.3471C65.2623 128.949 67.6358 126.575 67.6358 123.66V120.495H90.8895V123.66C90.8929 126.572 93.2664 128.949 96.1816 128.949ZM120.488 115.206C120.488 116.953 119.063 118.378 117.316 118.378H41.2129C39.4658 118.378 38.0404 116.953 38.0404 115.206V107.808H120.488V115.206Z" fill="#034980"></path><path id="Vector_2" d="M104.633 71.8672H62.3505C62.0695 71.8672 61.802 71.9789 61.6022 72.1753L53.1445 80.6331C52.9447 80.8328 52.8364 81.1003 52.8364 81.3813V102.522C52.8364 103.105 53.3104 103.579 53.8927 103.579C54.4751 103.579 54.9491 103.105 54.9491 102.522V82.4377H62.3471C62.9295 82.4377 63.4035 81.9637 63.4035 81.3813V73.9799H103.569V102.519C103.569 103.101 104.043 103.575 104.626 103.575C105.208 103.575 105.682 103.101 105.682 102.519V72.9236C105.689 72.3412 105.215 71.8672 104.633 71.8672ZM61.2941 80.325H56.4456L61.2941 75.4765V80.325Z" fill="#034980"></path><path id="Vector_3" d="M83.4916 82.4379C84.0739 82.4379 84.5479 81.9639 84.5479 81.3816C84.5479 80.7992 84.0739 80.3252 83.4916 80.3252H75.0338C74.4514 80.3252 73.9774 80.7992 73.9774 81.3816C73.9774 81.9639 74.4514 82.4379 75.0338 82.4379H83.4916Z" fill="#034980"></path><path id="Vector_4" d="M96.1782 88.7793H62.3539C61.7715 88.7793 61.2975 89.2533 61.2975 89.8357C61.2975 90.418 61.7715 90.8921 62.3539 90.8921H96.1782C96.7605 90.8921 97.2345 90.418 97.2345 89.8357C97.2345 89.2533 96.7605 88.7793 96.1782 88.7793Z" fill="#034980"></path><path id="Vector_5" d="M96.1782 93.0083H62.3539C61.7715 93.0083 61.2975 93.4823 61.2975 94.0647C61.2975 94.647 61.7715 95.121 62.3539 95.121H96.1782C96.7605 95.121 97.2345 94.647 97.2345 94.0647C97.2345 93.4823 96.7605 93.0083 96.1782 93.0083Z" fill="#034980"></path><path id="Vector_6" d="M96.1782 97.2371H62.3539C61.7715 97.2371 61.2975 97.7111 61.2975 98.2934C61.2975 98.8758 61.7715 99.3498 62.3539 99.3498H96.1782C96.7605 99.3498 97.2345 98.8758 97.2345 98.2934C97.2345 97.7111 96.7605 97.2371 96.1782 97.2371Z" fill="#034980"></path></g><g id="Group_3"><path id="Vector_7" d="M41.8562 37.4302C41.521 37.2101 41.0944 37.1932 40.7456 37.3895L24.3041 46.7682L12.6265 49.0943C12.2066 49.1789 11.8782 49.5074 11.7935 49.9238C11.7665 50.0626 11.7698 50.2015 11.7969 50.3369C11.8511 50.6077 12.0102 50.8515 12.2472 51.0107L19.5335 55.8524L32.3421 61.1376V58.859L20.5222 53.9936L15.5416 50.6687L24.8865 48.8065C24.9982 48.7828 25.1066 48.7456 25.2048 48.688L41.2264 39.5463L45.0016 42.0687H48.8073L41.8562 37.4302Z" fill="#034980"></path><path id="Vector_8" d="M86.1325 41.6895C81.4635 18.2529 58.6025 2.98623 35.1625 7.65527C11.7225 12.3209 -3.54417 35.1853 1.12487 58.6219C4.44296 75.2835 16.9603 87.8144 32.3421 91.9925V89.7917C31.6074 89.5818 30.876 89.355 30.1548 89.101L31.6311 77.5216C31.6818 77.122 31.499 76.7327 31.1672 76.5092L24.0638 71.7657C23.8301 71.6099 23.5457 71.5524 23.2715 71.6065C22.9972 71.6607 22.7535 71.8232 22.5977 72.0568L16.51 81.1748C13.2901 78.368 10.4934 75.0533 8.25878 71.3255C9.972 67.5469 10.2632 62.7425 9.12555 57.0272C7.98791 51.312 5.87516 46.9849 2.84825 44.151C3.36289 40.6873 4.31092 37.3353 5.6517 34.1628L15.4265 32.216C15.7008 32.1618 15.9446 31.9993 16.1003 31.7656L20.8371 24.6656C21.091 24.2898 21.0775 23.7921 20.7931 23.4332L17.089 18.6253C18.3113 17.5926 19.6013 16.6277 20.9454 15.7372L24.1179 17.8533C24.3516 18.0091 24.636 18.0666 24.9102 18.0125L36.3272 15.7372L43.0683 20.237C43.302 20.3927 43.5864 20.4503 43.8606 20.3961L49.7858 19.2144C50.358 19.0993 50.7304 18.544 50.6153 17.9718L49.5454 12.6019L52.2947 9.85605C67.7238 13.1978 80.5188 25.2954 83.9656 41.6624L78.5821 36.2756L64.3719 26.7885C63.9927 26.5346 63.495 26.5515 63.1394 26.8325L52.4707 35.1176C52.1525 35.3648 52.0035 35.7677 52.0814 36.1604L53.2596 42.0788H55.4164L54.2822 36.3873L63.8369 28.9724L77.2481 37.9041L81.4025 42.0788H86.2036C86.1765 41.9468 86.1562 41.8181 86.1325 41.6895ZM23.7658 74.112L29.4472 77.9075L28.1166 88.3358C24.5344 86.8732 21.1757 84.9196 18.1454 82.5359L23.7658 74.112ZM7.05004 57.4437C7.94728 61.9468 7.89649 65.7931 6.91799 68.9182C5.22847 65.6136 3.96218 62.0281 3.20037 58.2122C2.44195 54.3964 2.23541 50.5975 2.52998 46.8969C4.63596 49.4057 6.1528 52.9405 7.05004 57.4437ZM18.66 24.1239L14.5801 30.2285L6.74193 31.7894C8.93933 27.3912 11.9053 23.4027 15.5078 20.0304L18.66 24.1239ZM47.6493 11.5049C47.3988 11.7555 47.2904 12.1144 47.3582 12.4597L48.3333 17.3489L43.8742 18.2359L37.133 13.7362C36.8994 13.5804 36.615 13.5229 36.3407 13.5771L24.9238 15.8523L22.916 14.5115C26.7419 12.2837 30.9945 10.6382 35.5721 9.72739C40.3868 8.7692 45.1709 8.69471 49.7655 9.39219L47.6493 11.5049Z" fill="#034980"></path></g><g id="Group_4"><path id="Vector_9" d="M106.349 60.2506V57.0781H109.522C110.104 57.0781 110.578 56.6041 110.578 56.0217V43.3385C110.578 42.7561 110.104 42.2821 109.522 42.2821H106.349V30.6518C106.349 30.0695 105.875 29.5955 105.293 29.5955C104.71 29.5955 104.236 30.0695 104.236 30.6518V42.2787H101.064C100.481 42.2787 100.007 42.7527 100.007 43.3351V56.0184C100.007 56.6007 100.481 57.0747 101.064 57.0747H104.236V60.2472C104.236 60.8296 104.71 61.3036 105.293 61.3036C105.875 61.307 106.349 60.833 106.349 60.2506ZM102.12 54.9654V44.3949H108.462V54.9654H102.12Z" fill="#034980"></path><path id="Vector_10" d="M129.528 61.2867V45.4309H132.701C133.283 45.4309 133.757 44.9569 133.757 44.3746V14.7792C133.757 14.1934 133.283 13.7228 132.701 13.7228H129.528V2.09251C129.528 1.50676 129.054 1.03613 128.472 1.03613C127.89 1.03613 127.416 1.51015 127.416 2.09251V13.7194H124.243C123.661 13.7194 123.187 14.1934 123.187 14.7758V44.3712C123.187 44.9535 123.661 45.4276 124.243 45.4276H127.416V61.2833C127.416 61.8657 127.89 62.3397 128.472 62.3397C129.051 62.3431 129.528 61.8691 129.528 61.2867ZM125.3 43.3182V15.8355H131.641V43.3182H125.3Z" fill="#034980"></path><path id="Vector_11" d="M89.437 38.0227C89.437 38.6085 89.911 39.0791 90.4934 39.0791H93.6659V54.9349C93.6659 55.5172 94.1399 55.9912 94.7223 55.9912C95.3046 55.9912 95.7786 55.5172 95.7786 54.9349V39.0791H98.9512C99.5335 39.0791 100.008 38.6051 100.008 38.0227V33.7938C100.008 33.2081 99.5335 32.7375 98.9512 32.7375H95.7786V21.1106C95.7786 20.5248 95.3046 20.0542 94.7223 20.0542C94.1399 20.0542 93.6659 20.5282 93.6659 21.1106V32.7375H90.4934C89.911 32.7375 89.437 33.2115 89.437 33.7938V38.0227ZM91.5498 34.8502H97.8914V36.963H91.5498V34.8502Z" fill="#034980"></path><path id="Vector_12" d="M115.697 40.1458V36.9733H118.87C119.452 36.9733 119.926 36.4993 119.926 35.9169V27.4625C119.926 26.8802 119.452 26.4062 118.87 26.4062H115.697V14.7793C115.697 14.1969 115.223 13.7229 114.641 13.7229C114.059 13.7229 113.585 14.1969 113.585 14.7793V26.4062H110.412C109.83 26.4062 109.356 26.8802 109.356 27.4625V35.9203C109.356 36.5027 109.83 36.9767 110.412 36.9767H113.585V40.1492C113.585 40.7315 114.059 41.2056 114.641 41.2056C115.22 41.2056 115.697 40.7282 115.697 40.1458ZM111.469 34.8605V28.5189H117.81V34.8605H111.469Z" fill="#034980"></path></g><path id="Vector_13" d="M155.752 21.7302L151.726 20.5384C150.063 20.0441 148.303 21.009 147.805 22.685L128.581 87.5471C128.553 87.6419 128.536 87.7367 128.536 87.8349L128.357 103.217C128.35 103.687 128.658 104.107 129.105 104.239C129.552 104.371 130.04 104.188 130.29 103.789L138.521 90.7941C138.575 90.7128 138.616 90.6248 138.643 90.53L157.868 25.6645C158.366 23.992 157.414 22.2246 155.752 21.7302ZM147.717 30.3742L149.728 30.9701L135.132 80.21L132.518 81.6388L147.717 30.3742ZM130.5 99.5329L130.558 94.4914L132.467 92.8865L133.199 95.2701L130.5 99.5329ZM136.673 89.7885L134.682 92.9305L134.015 90.7501C133.805 90.0729 132.874 89.8054 132.339 90.2523L130.588 91.7184L130.632 87.9974L131.668 84.5066L135.589 82.36L137.705 86.2943L136.673 89.7885ZM138.559 83.4299L137.147 80.8059L151.743 31.566L153.754 32.1619L138.559 83.4299ZM154.353 30.1372L148.316 28.3461L149.82 23.2775C149.986 22.7189 150.571 22.3972 151.127 22.5631L155.152 23.7549C155.708 23.9209 156.023 24.51 155.857 25.0653L154.353 30.1372Z" fill="#034980"></path><path id="Vector_14" d="M131.899 111.654C131.899 108.759 134.252 106.406 137.147 106.406C140.041 106.406 142.395 108.759 142.395 111.654C142.395 114.549 140.041 116.902 137.147 116.902C134.252 116.902 131.899 114.549 131.899 111.654ZM133.998 111.654C133.998 113.391 135.41 114.803 137.147 114.803C138.883 114.803 140.295 113.391 140.295 111.654C140.295 109.917 138.883 108.505 137.147 108.505C135.41 108.505 133.998 109.917 133.998 111.654Z" fill="#034980"></path><path id="Vector_15" d="M1.49396 90.8957C1.49396 88.0008 3.8471 85.6477 6.74197 85.6477C9.63684 85.6477 11.99 88.0008 11.99 90.8957C11.99 93.7906 9.63684 96.1437 6.74197 96.1437C3.8471 96.1437 1.49396 93.7872 1.49396 90.8957ZM3.59316 90.8957C3.59316 92.6326 5.00505 94.0445 6.74197 94.0445C8.47889 94.0445 9.89078 92.6326 9.89078 90.8957C9.89078 89.1588 8.47889 87.7469 6.74197 87.7469C5.00505 87.7469 3.59316 89.1588 3.59316 90.8957Z" fill="#034980"></path><path id="Vector_16" d="M77.1838 9.48028C77.1838 4.25258 81.4364 0 86.6641 0C91.8918 0 96.1443 4.25258 96.1443 9.48028C96.1443 14.708 91.8918 18.9606 86.6641 18.9606C81.4364 18.9606 77.1838 14.708 77.1838 9.48028ZM79.2898 9.48028C79.2898 13.5466 82.5977 16.8546 86.6641 16.8546C90.7304 16.8546 94.0384 13.5466 94.0384 9.48028C94.0384 5.41392 90.7304 2.10598 86.6641 2.10598C82.5977 2.10598 79.2898 5.41392 79.2898 9.48028Z" fill="#034980"></path><path id="Vector_17" d="M9.17969 104.28C9.17969 99.0519 13.4323 94.7993 18.66 94.7993C23.8877 94.7993 28.1402 99.0519 28.1402 104.28C28.1402 109.507 23.8877 113.76 18.66 113.76C13.4323 113.76 9.17969 109.507 9.17969 104.28ZM11.2857 104.28C11.2857 108.346 14.5936 111.654 18.66 111.654C22.7263 111.654 26.0343 108.346 26.0343 104.28C26.0343 100.213 22.7263 96.9053 18.66 96.9053C14.5936 96.9053 11.2857 100.213 11.2857 104.28Z" fill="#034980"></path></g></g></svg>