<svg xmlns="http://www.w3.org/2000/svg" width="169" height="140" viewBox="0 0 169 140" fill="none"><g id="Group 14"><g id="Group"><path id="Vector" d="M44.0434 117.975C44.0434 118.758 44.6805 119.395 45.4633 119.395H130.71C131.498 119.395 132.13 118.758 132.13 117.975V83.8752C132.13 83.0879 131.493 82.4553 130.71 82.4553H45.4633C44.676 82.4553 44.0434 83.0925 44.0434 83.8752V117.975ZM129.291 85.2951V116.551H94.8859C98.4811 113.278 100.875 107.499 100.875 100.923C100.875 94.3422 98.4766 88.5672 94.8814 85.2951H129.291ZM88.0869 85.2951C93.5707 85.2951 98.0306 92.3034 98.0306 100.923C98.0306 109.542 93.5707 116.551 88.0869 116.551C82.6031 116.551 78.1432 109.542 78.1432 100.923C78.1432 92.3034 82.6031 85.2951 88.0869 85.2951ZM46.8831 85.2951H81.3015C77.7018 88.5672 75.2989 94.3422 75.2989 100.923C75.2989 107.499 77.6927 113.278 81.2879 116.551H46.8831V85.2951Z" fill="#034980"></path><path id="Vector_2" d="M58.1102 90.9794H73.3102C74.0975 90.9794 74.7301 90.3423 74.7301 89.5595C74.7301 88.7722 74.0929 88.1396 73.3102 88.1396H56.8314C56.0441 88.1396 55.4115 88.7768 55.4115 89.5595C55.4115 91.9078 53.5002 93.8237 51.1474 93.8237C50.3601 93.8237 49.7275 94.4608 49.7275 95.2436V106.612C49.7275 107.399 50.3646 108.032 51.1474 108.032C53.4956 108.032 55.4115 109.943 55.4115 112.296C55.4115 113.083 56.0487 113.716 56.8314 113.716H73.3102C74.0975 113.716 74.7301 113.079 74.7301 112.296C74.7301 111.508 74.0929 110.876 73.3102 110.876H58.1102C57.5414 108.095 55.3478 105.902 52.5672 105.333V96.5269C55.3478 95.9535 57.5414 93.76 58.1102 90.9794Z" fill="#034980"></path><path id="Vector_3" d="M118.064 110.871H102.864C102.076 110.871 101.444 111.508 101.444 112.291C101.444 113.078 102.081 113.711 102.864 113.711H119.342C120.13 113.711 120.762 113.074 120.762 112.291C120.762 109.943 122.674 108.027 125.027 108.027C125.814 108.027 126.446 107.39 126.446 106.607V95.2387C126.446 94.4514 125.809 93.8188 125.027 93.8188C122.678 93.8188 120.762 91.9074 120.762 89.5546C120.762 88.7673 120.125 88.1348 119.342 88.1348H102.864C102.076 88.1348 101.444 88.7719 101.444 89.5546C101.444 90.3419 102.081 90.9745 102.864 90.9745H118.064C118.633 93.7551 120.826 95.9486 123.607 96.5175V105.323C120.826 105.897 118.633 108.09 118.064 110.871Z" fill="#034980"></path><path id="Vector_4" d="M85.2472 105.187C84.4599 105.187 83.8273 105.824 83.8273 106.607C83.8273 107.394 84.4645 108.027 85.2472 108.027H86.6671V109.447C86.6671 110.234 87.3042 110.866 88.087 110.866C88.8743 110.866 89.5068 110.229 89.5068 109.447V108.027H90.9267C91.714 108.027 92.3466 107.39 92.3466 106.607V100.923C92.3466 100.135 91.7095 99.5029 90.9267 99.5029H86.6625V96.6631H90.9267C91.714 96.6631 92.3466 96.026 92.3466 95.2433C92.3466 94.4605 91.7095 93.8234 90.9267 93.8234H89.5068V92.4035C89.5068 91.6162 88.8697 90.9836 88.087 90.9836C87.2997 90.9836 86.6671 91.6208 86.6671 92.4035V93.8234H85.2472C84.4599 93.8234 83.8273 94.4605 83.8273 95.2433V100.927C83.8273 101.715 84.4645 102.347 85.2472 102.347H89.5114V105.187H85.2472Z" fill="#034980"></path><path id="Vector_5" d="M136.395 113.711C137.182 113.711 137.814 113.074 137.814 112.291V78.1914C137.814 77.4041 137.177 76.7715 136.395 76.7715H51.1474C50.3601 76.7715 49.7275 77.4086 49.7275 78.1914C49.7275 78.9787 50.3646 79.6112 51.1474 79.6112H134.975V112.287C134.975 113.074 135.607 113.711 136.395 113.711Z" fill="#034980"></path><path id="Vector_6" d="M142.079 71.0874H56.8314C56.0441 71.0874 55.4116 71.7245 55.4116 72.5073C55.4116 73.2946 56.0487 73.9272 56.8314 73.9272H140.659V106.603C140.659 107.39 141.296 108.022 142.079 108.022C142.866 108.022 143.499 107.385 143.499 106.603V72.5027C143.499 71.7245 142.861 71.0874 142.079 71.0874Z" fill="#034980"></path></g><g id="Group_2"><path id="Vector_7" d="M24.1516 69.6671C37.472 69.6671 48.3031 58.8315 48.3031 45.5156C48.3031 32.1997 37.472 21.364 24.1516 21.364C10.8311 21.364 0 32.1951 0 45.5156C0 58.836 10.8311 69.6671 24.1516 69.6671ZM24.1516 24.2038C35.902 24.2038 45.4634 33.7652 45.4634 45.5156C45.4634 57.266 35.902 66.8274 24.1516 66.8274C12.4012 66.8274 2.83975 57.266 2.83975 45.5156C2.83975 33.7606 12.4057 24.2038 24.1516 24.2038Z" fill="#034980"></path><path id="Vector_8" d="M19.892 51.1953C19.892 50.408 19.2548 49.7754 18.4721 49.7754C17.6893 49.7754 17.0522 50.4125 17.0522 51.1953C17.0522 54.6266 19.496 57.4982 22.7363 58.1581V59.7236C22.7363 60.5109 23.3734 61.1435 24.1562 61.1435C24.9389 61.1435 25.576 60.5064 25.576 59.7236V58.1581C28.8163 57.4982 31.2601 54.6312 31.2601 51.1953C31.2601 47.7593 28.8163 44.8923 25.576 44.2324V35.8133C27.228 36.4003 28.4158 37.9749 28.4158 39.8271C28.4158 40.6144 29.0529 41.247 29.8357 41.247C30.6184 41.247 31.2555 40.6099 31.2555 39.8271C31.2555 36.3958 28.8117 33.5242 25.5715 32.8643V31.2988C25.5715 30.5115 24.9344 29.8789 24.1516 29.8789C23.3689 29.8789 22.7317 30.516 22.7317 31.2988V32.8643C19.4915 33.5242 17.0477 36.3912 17.0477 39.8271C17.0477 43.2585 19.4915 46.1301 22.7317 46.79V55.2091C21.0798 54.6221 19.892 53.0475 19.892 51.1953ZM25.576 47.1859C27.228 47.773 28.4158 49.3476 28.4158 51.1998C28.4158 53.052 27.228 54.6266 25.576 55.2137V47.1859ZM19.892 39.8317C19.892 37.9795 21.0798 36.4049 22.7317 35.8178V43.8456C21.0798 43.2585 19.892 41.6839 19.892 39.8317Z" fill="#034980"></path><path id="Vector_9" d="M41.3767 107.585C31.9154 101.856 25.576 91.4614 25.576 79.6109V77.3582L28.8345 80.6167C29.3897 81.1719 30.2907 81.1719 30.8414 80.6167C31.3966 80.0615 31.3966 79.1604 30.8414 78.6097L25.1573 72.9257C24.6021 72.3705 23.701 72.3705 23.1504 72.9257L17.4663 78.6097C16.9111 79.1649 16.9111 80.066 17.4663 80.6167C18.0215 81.1719 18.9226 81.1719 19.4733 80.6167L22.7317 77.3582V79.6109C22.7317 93.0907 30.2816 104.841 41.3767 110.857V107.585Z" fill="#034980"></path><path id="Vector_10" d="M52.5673 46.9357H58.2514C72.4047 46.9357 84.4736 55.9874 89.0063 68.5979C90.0166 68.6161 91.0269 68.6434 92.0372 68.6662C87.4089 54.4219 74.0202 44.0959 58.2514 44.0959H52.5673C51.7846 44.0959 51.1475 44.7331 51.1475 45.5158C51.1475 46.2986 51.7846 46.9357 52.5673 46.9357Z" fill="#034980"></path></g><path id="Vector_11" d="M154 78.0539C154 74.1629 157.163 71 161.054 71C164.945 71 168.108 74.1629 168.108 78.0539C168.108 81.9449 164.945 85.1078 161.054 85.1078C157.167 85.1078 154 81.9403 154 78.0539ZM156.822 78.0539C156.822 80.3885 158.719 82.2862 161.054 82.2862C163.388 82.2862 165.286 80.3885 165.286 78.0539C165.286 75.7193 163.388 73.8216 161.054 73.8216C158.719 73.8216 156.822 75.7193 156.822 78.0539Z" fill="#034980"></path><path id="Vector_12" d="M55.0475 24.404C55.0475 20.513 58.2104 17.3501 62.1014 17.3501C65.9924 17.3501 69.1553 20.513 69.1553 24.404C69.1553 28.295 65.9924 31.4578 62.1014 31.4578C58.2104 31.4578 55.0475 28.2904 55.0475 24.404ZM57.8691 24.404C57.8691 26.7386 59.7668 28.6363 62.1014 28.6363C64.436 28.6363 66.3337 26.7386 66.3337 24.404C66.3337 22.0694 64.436 20.1716 62.1014 20.1716C59.7668 20.1716 57.8691 22.0694 57.8691 24.404Z" fill="#034980"></path><path id="Vector_13" d="M137.796 126.453C137.796 119.427 143.512 113.711 150.539 113.711C157.565 113.711 163.281 119.427 163.281 126.453C163.281 133.48 157.565 139.196 150.539 139.196C143.512 139.196 137.796 133.48 137.796 126.453ZM140.627 126.453C140.627 131.919 145.073 136.365 150.539 136.365C156.004 136.365 160.451 131.919 160.451 126.453C160.451 120.988 156.004 116.541 150.539 116.541C145.073 116.541 140.627 120.988 140.627 126.453Z" fill="#034980"></path><g id="Group_3"><path id="Vector_14" d="M109.449 62.5902V58.326H113.713C114.496 58.326 115.133 57.6889 115.133 56.9062V39.8585C115.133 39.0758 114.496 38.4387 113.713 38.4387H109.449V22.8064C109.449 22.0236 108.812 21.3865 108.029 21.3865C107.246 21.3865 106.609 22.0236 106.609 22.8064V38.4341H102.345C101.562 38.4341 100.925 39.0712 100.925 39.854V56.9016C100.925 57.6844 101.562 58.3215 102.345 58.3215H106.609V62.5857C106.609 63.3684 107.246 64.0055 108.029 64.0055C108.812 64.0101 109.449 63.373 109.449 62.5902ZM103.769 55.4863V41.2784H112.293V55.4863H103.769Z" fill="#034980"></path><path id="Vector_15" d="M86.7171 32.7136C86.7171 33.5009 87.3542 34.1334 88.137 34.1334H92.4012V55.4453C92.4012 56.228 93.0383 56.8651 93.821 56.8651C94.6038 56.8651 95.2409 56.228 95.2409 55.4453V34.1334H99.5051C100.288 34.1334 100.925 33.4963 100.925 32.7136V27.0295C100.925 26.2422 100.288 25.6096 99.5051 25.6096H95.2409V9.98189C95.2409 9.19459 94.6038 8.56201 93.821 8.56201C93.0383 8.56201 92.4012 9.19914 92.4012 9.98189V25.6096H88.137C87.3542 25.6096 86.7171 26.2468 86.7171 27.0295V32.7136ZM89.5614 28.4494H98.0852V31.2891H89.5614V28.4494Z" fill="#034980"></path><path id="Vector_16" d="M122.014 35.5669V31.3027H126.278C127.061 31.3027 127.698 30.6656 127.698 29.8828V18.5193C127.698 17.7365 127.061 17.0994 126.278 17.0994H122.014V1.47163C122.014 0.688882 121.377 0.0517578 120.594 0.0517578C119.811 0.0517578 119.174 0.688882 119.174 1.47163V17.0994H114.91C114.127 17.0994 113.49 17.7365 113.49 18.5193V29.8874C113.49 30.6701 114.127 31.3073 114.91 31.3073H119.174V35.5714C119.174 36.3542 119.811 36.9913 120.594 36.9913C121.377 36.9913 122.014 36.3496 122.014 35.5669ZM116.33 28.4629V19.9391H124.854V28.4629H116.33Z" fill="#034980"></path></g><path id="Vector_17" d="M145.628 33C138.051 33 130 35.4893 130 40.1039V57.1516C130 61.7662 138.055 64.2555 145.628 64.2555C153.205 64.2555 161.255 61.7662 161.255 57.1516V40.1039C161.255 35.4893 153.205 33 145.628 33ZM158.416 57.1516C158.416 58.89 153.433 61.4157 145.628 61.4157C137.823 61.4157 132.84 58.89 132.84 57.1516V52.8282C135.852 54.7305 140.831 55.7317 145.628 55.7317C150.42 55.7317 155.399 54.735 158.416 52.8373V57.1516ZM158.416 48.6277C158.416 50.3662 153.433 52.8919 145.628 52.8919C137.823 52.8919 132.84 50.3662 132.84 48.6277V44.3044C135.852 46.2067 140.831 47.2033 145.628 47.2033C150.42 47.2033 155.399 46.2067 158.416 44.309V48.6277ZM145.628 44.3636C137.823 44.3636 132.84 41.8378 132.84 40.0994C132.84 38.3609 137.823 35.8352 145.628 35.8352C153.433 35.8352 158.416 38.3609 158.416 40.0994C158.416 41.8378 153.433 44.3636 145.628 44.3636Z" fill="#034980"></path></g></svg>