<svg xmlns="http://www.w3.org/2000/svg" width="148" height="131" viewBox="0 0 148 131" fill="none"><g id="Group 11"><path id="Vector" d="M144.727 13.7664H139.043C138.261 13.7664 137.623 14.4035 137.623 15.1862C137.623 15.9735 138.261 16.6061 139.043 16.6061H141.296L121.996 35.9064L111.633 25.5486C111.078 24.9934 110.177 24.9934 109.626 25.5486L76.5323 58.6427L66.1699 48.2848C65.6147 47.7296 64.7136 47.7296 64.163 48.2848L48.4624 63.9854C48.5125 63.9854 48.558 63.9945 48.6035 63.9991C48.7764 63.9854 48.9448 63.9717 49.1268 63.9717C50.1872 63.9717 51.0883 64.2175 51.8392 64.6225L65.1687 51.293L75.5311 61.6553C76.0863 62.2106 76.9874 62.2106 77.538 61.6553L110.632 28.5613L120.994 38.9237C121.55 39.4789 122.451 39.4789 123.001 38.9237L143.307 18.6176V20.8703C143.307 21.6576 143.945 22.2902 144.727 22.2902C145.51 22.2902 146.147 21.653 146.147 20.8703V15.1908C146.147 14.4035 145.51 13.7664 144.727 13.7664Z" fill="#034980"></path><g id="Group"><path id="Vector_2" d="M128.836 89.7934V85.5292H133.1C133.883 85.5292 134.52 84.8921 134.52 84.1094V67.0617C134.52 66.279 133.883 65.6419 133.1 65.6419H128.836V50.0141C128.836 49.2314 128.199 48.5942 127.416 48.5942C126.633 48.5942 125.996 49.2314 125.996 50.0141V65.6419H121.732C120.949 65.6419 120.312 66.279 120.312 67.0617V84.1094C120.312 84.8921 120.949 85.5292 121.732 85.5292H125.996V89.7934C125.996 90.5762 126.633 91.2133 127.416 91.2133C128.199 91.2133 128.836 90.5762 128.836 89.7934ZM123.152 82.6895V68.4816H131.675V82.6895H123.152Z" fill="#034980"></path><path id="Vector_3" d="M106.104 59.9174C106.104 60.7047 106.741 61.3373 107.524 61.3373H111.788V82.6491C111.788 83.4319 112.425 84.069 113.208 84.069C113.991 84.069 114.628 83.4319 114.628 82.6491V61.3373H118.892C119.675 61.3373 120.312 60.7002 120.312 59.9174V54.2334C120.312 53.4461 119.675 52.8135 118.892 52.8135H114.628V37.1857C114.628 36.3984 113.991 35.7659 113.208 35.7659C112.425 35.7659 111.788 36.403 111.788 37.1857V52.8135H107.524C106.741 52.8135 106.104 53.4506 106.104 54.2334V59.9174ZM108.944 55.6578H117.468V58.4976H108.944V55.6578Z" fill="#034980"></path><path id="Vector_4" d="M141.396 62.775V58.5109H145.66C146.443 58.5109 147.08 57.8737 147.08 57.091V45.7229C147.08 44.9401 146.443 44.303 145.66 44.303H141.396V28.6752C141.396 27.8925 140.759 27.2554 139.976 27.2554C139.193 27.2554 138.556 27.8925 138.556 28.6752V44.303H134.292C133.509 44.303 132.872 44.9401 132.872 45.7229V57.091C132.872 57.8737 133.509 58.5109 134.292 58.5109H138.556V62.775C138.556 63.5578 139.193 64.1949 139.976 64.1949C140.759 64.1949 141.396 63.5578 141.396 62.775ZM135.712 55.6711V47.1473H144.236V55.6711H135.712Z" fill="#034980"></path></g><path id="Vector_5" d="M52.4035 61.7555C51.7209 61.4187 50.8562 61.6872 50.5012 62.3926C50.1508 63.0934 50.4329 63.9444 51.1383 64.2949C60.363 68.9049 66.0971 78.1523 66.0971 88.4237C66.0971 103.31 53.9872 115.42 39.1012 115.42C24.2153 115.42 12.1054 103.31 12.1054 88.4237C12.1054 81.5564 14.713 74.9804 19.4505 69.9016C19.9875 69.3236 19.9557 68.4271 19.3822 67.8946C18.8134 67.3622 17.9078 67.3895 17.3753 67.9629C12.1463 73.5741 9.26562 80.8373 9.26562 88.4237C9.26562 104.875 22.6498 118.259 39.1012 118.259C55.5527 118.259 68.9369 104.875 68.9369 88.4237C68.9369 77.0738 62.6066 66.857 52.4035 61.7555Z" fill="#034980"></path><path id="Vector_6" d="M85.0561 109.581C85.0561 108.798 84.419 108.161 83.6362 108.161C82.8535 108.161 82.2163 108.798 82.2163 109.581C82.2163 113.012 84.6602 115.884 87.9004 116.544V118.109C87.9004 118.892 88.5375 119.529 89.3203 119.529C90.103 119.529 90.7402 118.892 90.7402 118.109V116.544C93.9804 115.884 96.4242 113.017 96.4242 109.581C96.4242 106.15 93.9804 103.278 90.7402 102.618V94.199C92.3921 94.7861 93.5799 96.3607 93.5799 98.2129C93.5799 98.9956 94.217 99.6328 94.9998 99.6328C95.7825 99.6328 96.4197 98.9956 96.4197 98.2129C96.4197 94.7815 93.9758 91.9099 90.7356 91.25V89.6845C90.7356 88.9018 90.0985 88.2646 89.3157 88.2646C88.533 88.2646 87.8959 88.9018 87.8959 89.6845V91.25C84.6556 91.9099 82.2118 94.777 82.2118 98.2129C82.2118 101.644 84.6556 104.516 87.8959 105.176V113.595C86.2439 113.003 85.0561 111.429 85.0561 109.581ZM90.7402 105.567C92.3921 106.154 93.5799 107.729 93.5799 109.581C93.5799 111.429 92.3921 113.008 90.7402 113.595V105.567ZM85.0561 98.2129C85.0561 96.3652 86.2439 94.7861 87.8959 94.199V102.227C86.2439 101.64 85.0561 100.061 85.0561 98.2129Z" fill="#034980"></path><path id="Vector_7" d="M66.8844 112.807C66.5977 112.075 65.7739 111.724 65.0413 112.006C64.3086 112.293 63.9536 113.121 64.2403 113.849C68.3315 124.198 78.1751 130.888 89.3157 130.888C104.202 130.888 116.312 118.778 116.312 103.892C116.312 89.0062 104.202 76.8962 89.3157 76.8962C83.668 76.8962 78.257 78.6392 73.6606 81.9341C73.0235 82.3892 72.8779 83.2766 73.333 83.9137C73.7926 84.5554 74.68 84.6919 75.3126 84.2414C79.4266 81.2924 84.2642 79.736 89.3157 79.736C102.636 79.736 113.467 90.5671 113.467 103.888C113.467 117.208 102.636 128.039 89.3157 128.039C79.3492 128.048 70.5478 122.064 66.8844 112.807Z" fill="#034980"></path><path id="Vector_8" d="M49.0495 102.636C49.0495 103.419 49.6866 104.056 50.4694 104.056H56.1534C56.9362 104.056 57.5733 103.419 57.5733 102.636V96.9522C57.5733 96.1694 56.9362 95.5323 56.1534 95.5323C55.3661 95.5323 54.7336 96.1694 54.7336 96.9522V99.2094L40.1116 84.5874C39.5563 84.0322 38.6553 84.0322 38.1046 84.5874L33.4263 89.2612L20.388 76.2274C19.8328 75.6722 18.9317 75.6722 18.3811 76.2274C17.8259 76.7826 17.8259 77.6837 18.3811 78.2344L32.416 92.2693C32.9712 92.8245 33.8723 92.8245 34.4229 92.2693L39.1013 87.5956L52.7221 101.216H50.4694C49.6821 101.216 49.0495 101.853 49.0495 102.636Z" fill="#034980"></path><g id="Group_2"><path id="Vector_9" d="M18.4538 31.5286C22.3675 31.5286 25.5531 28.3475 25.5531 24.4292C25.5531 20.5155 22.3721 17.3298 18.4538 17.3298C14.54 17.3298 11.3544 20.5109 11.3544 24.4292C11.3544 28.3475 14.54 31.5286 18.4538 31.5286ZM18.4538 20.1741C20.7975 20.1741 22.7134 22.0855 22.7134 24.4338C22.7134 26.782 20.802 28.6934 18.4538 28.6934C16.11 28.6934 14.1941 26.782 14.1941 24.4338C14.1941 22.0855 16.1055 20.1741 18.4538 20.1741Z" fill="#034980"></path><path id="Vector_10" d="M34.0679 41.4676C34.0679 45.3813 37.249 48.5669 41.1673 48.5669C45.0856 48.5669 48.2667 45.3859 48.2667 41.4676C48.2667 37.5538 45.0856 34.3682 41.1673 34.3682C37.249 34.3682 34.0679 37.5492 34.0679 41.4676ZM45.4224 41.4676C45.4224 43.8158 43.511 45.7272 41.1628 45.7272C38.8145 45.7272 36.9031 43.8158 36.9031 41.4676C36.9031 39.1193 38.8145 37.2079 41.1628 37.2079C43.511 37.2079 45.4224 39.1193 45.4224 41.4676Z" fill="#034980"></path><path id="Vector_11" d="M15.291 47.4658C15.8462 48.021 16.7427 48.021 17.2979 47.4658L45.0083 19.76C45.5635 19.2048 45.5635 18.3083 45.0083 17.7531C44.4531 17.1979 43.5565 17.1979 43.0013 17.7531L15.291 45.4589C14.7358 46.0141 14.7358 46.9106 15.291 47.4658Z" fill="#034980"></path><path id="Vector_12" d="M29.8083 62.7568C46.2461 62.7568 59.6166 49.3862 59.6166 32.9484C59.6166 16.5106 46.2461 3.14014 29.8083 3.14014C13.3705 3.14014 0 16.5106 0 32.9484C0 49.3862 13.3705 62.7568 29.8083 62.7568ZM29.8083 5.97989C44.6806 5.97989 56.7769 18.0807 56.7769 32.9484C56.7769 47.8162 44.6806 59.917 29.8083 59.917C14.936 59.917 2.83975 47.8207 2.83975 32.9484C2.83975 18.0761 14.936 5.97989 29.8083 5.97989Z" fill="#034980"></path></g><path id="Vector_13" d="M90.2487 7.05388C90.2487 3.16287 93.4115 0 97.3025 0C101.194 0 104.356 3.16287 104.356 7.05388C104.356 10.9449 101.194 14.1078 97.3025 14.1078C93.4115 14.1078 90.2487 10.9449 90.2487 7.05388ZM93.0702 7.05388C93.0702 9.38848 94.9679 11.2862 97.3025 11.2862C99.6371 11.2862 101.535 9.38848 101.535 7.05388C101.535 4.71927 99.6371 2.82155 97.3025 2.82155C94.9679 2.82155 93.0702 4.71927 93.0702 7.05388Z" fill="#034980"></path><path id="Vector_14" d="M64.8365 21.1116C64.8365 14.0851 70.5524 8.36914 77.579 8.36914C84.6055 8.36914 90.3215 14.0851 90.3215 21.1116C90.3215 28.1382 84.6055 33.8541 77.579 33.8541C70.5524 33.8541 64.8365 28.1382 64.8365 21.1116ZM67.6671 21.1116C67.6671 26.5772 72.1134 31.0235 77.579 31.0235C83.0446 31.0235 87.4908 26.5772 87.4908 21.1116C87.4908 15.646 83.0446 11.1998 77.579 11.1998C72.1134 11.1998 67.6671 15.6506 67.6671 21.1116Z" fill="#034980"></path></g></svg>