<svg xmlns="http://www.w3.org/2000/svg" width="191" height="138" viewBox="0 0 191 138" fill="none"><g id="Group 10"><path id="Vector" d="M164.091 125.19L135.962 97.0657C133.541 94.6492 129.8 94.3443 127.047 96.1465L121.295 90.3987C121.236 90.4533 121.181 90.5125 121.122 90.5671C120.526 91.2087 119.92 91.8231 119.302 92.4238L125.031 98.1488C123.193 100.907 123.488 104.675 125.919 107.105L154.048 135.229C156.819 137.996 161.324 137.996 164.091 135.229C166.858 132.467 166.858 127.962 164.091 125.19ZM162.08 133.227C160.419 134.888 157.716 134.888 156.054 133.227L127.925 105.107C126.264 103.446 126.264 100.743 127.925 99.0818C129.587 97.4207 132.29 97.4207 133.951 99.0818L162.08 127.202C163.741 128.863 163.741 131.566 162.08 133.227Z" fill="#034980"></path><g id="Group"><path id="Vector_2" d="M24.1516 48.3077C37.472 48.3077 48.3031 37.472 48.3031 24.1561C48.3031 10.8402 37.472 0 24.1516 0C10.8311 0 0 10.8357 0 24.1516C0 37.4675 10.8311 48.3077 24.1516 48.3077ZM24.1516 2.83975C35.902 2.83975 45.4634 12.4012 45.4634 24.1516C45.4634 35.902 35.902 45.4634 24.1516 45.4634C12.4057 45.4634 2.83975 35.9065 2.83975 24.1516C2.83975 12.4012 12.4057 2.83975 24.1516 2.83975Z" fill="#034980"></path><path id="Vector_3" d="M19.892 29.8356C19.892 29.0483 19.2549 28.4158 18.4722 28.4158C17.6894 28.4158 17.0523 29.0529 17.0523 29.8356C17.0523 33.267 19.4961 36.1386 22.7363 36.7985V38.364C22.7363 39.1513 23.3735 39.7839 24.1562 39.7839C24.939 39.7839 25.5761 39.1468 25.5761 38.364V36.7985C28.8163 36.1386 31.2602 33.2716 31.2602 29.8356C31.2602 26.3997 28.8163 23.5327 25.5761 22.8728V14.4536C27.2281 15.0407 28.4158 16.6153 28.4158 18.4675C28.4158 19.2548 29.053 19.8874 29.8357 19.8874C30.6185 19.8874 31.2556 19.2503 31.2556 18.4675C31.2556 15.0362 28.8118 12.1645 25.5715 11.5047V9.93916C25.5715 9.15186 24.9344 8.51929 24.1517 8.51929C23.3689 8.51929 22.7318 9.15641 22.7318 9.93916V11.5047C19.4916 12.1645 17.0477 15.0316 17.0477 18.4675C17.0477 21.8989 19.4916 24.7705 22.7318 25.4304V33.8495C21.0798 33.2625 19.892 31.6879 19.892 29.8356ZM25.5761 25.8218C27.2281 26.4088 28.4158 27.9834 28.4158 29.8356C28.4158 31.6879 27.2281 33.2625 25.5761 33.8495V25.8218ZM19.892 18.4721C19.892 16.6199 21.0798 15.0453 22.7318 14.4582V22.4814C21.0798 21.8943 19.892 20.3197 19.892 18.4721Z" fill="#034980"></path><path id="Vector_4" d="M58.2514 93.7712H63.9355C64.7183 93.7712 65.3554 93.134 65.3554 92.3513C65.3554 91.5685 64.7183 90.9314 63.9355 90.9314H58.2514C40.2299 90.9314 25.5761 76.273 25.5761 58.256V56.0033L28.8345 59.2618C29.3897 59.817 30.2908 59.817 30.8415 59.2618C31.3967 58.7066 31.3967 57.8055 30.8415 57.2548L25.1574 51.5617C24.6022 51.0065 23.7011 51.0065 23.1505 51.5617L17.4664 57.2457C16.9112 57.8009 16.9112 58.702 17.4664 59.2527C18.0216 59.8079 18.9227 59.8079 19.4733 59.2527L22.7318 55.9942V58.2515C22.7318 77.8385 38.6644 93.7712 58.2514 93.7712Z" fill="#034980"></path></g><g id="Group_2"><path id="Vector_5" d="M97.3481 58.2922C97.612 58.1466 97.8714 58.0009 98.1263 57.8326L102.855 54.6788C105.89 52.6491 107.706 49.2632 107.706 45.6089V27.0049C107.706 23.6099 104.944 20.8521 101.553 20.8521H82.6123C79.2173 20.8521 76.4504 23.6144 76.4504 27.0049V45.6134C76.4504 49.2632 78.2662 52.6537 81.3062 54.6833L86.0346 57.8371C86.2849 58.0055 86.5443 58.1557 86.8037 58.3013L61.8284 65.3597C59.2207 66.279 57.4732 68.6455 57.4732 71.244V79.2581C57.4732 80.0409 58.1103 80.678 58.8931 80.678C59.6758 80.678 60.313 80.0409 60.313 79.2581V71.244C60.313 69.8469 61.3005 68.559 62.6885 68.063L81.4063 62.7794L85.8889 67.262L84.9742 91.3635C84.956 91.764 85.1107 92.1462 85.3883 92.4239L91.0724 98.1079C91.35 98.3855 91.7095 98.522 92.0782 98.522C92.4422 98.522 92.8063 98.3855 93.0839 98.1079L98.768 92.4239C99.0456 92.1462 99.2003 91.7594 99.1821 91.3635L98.2492 67.2574L102.736 62.7703L121.386 68.0311C122.856 68.5545 123.843 69.8424 123.843 71.2395V79.2536C123.843 80.0363 124.48 80.6735 125.263 80.6735C126.046 80.6735 126.683 80.0363 126.683 79.2536V71.2395C126.683 68.6409 124.936 66.279 122.241 65.3279L97.3481 58.2922ZM82.8808 52.3169C80.6327 50.8151 79.2902 48.3121 79.2902 45.6134V27.0049C79.2902 25.1799 80.7783 23.6918 82.6078 23.6918H101.549C103.373 23.6918 104.862 25.1799 104.862 27.0049V45.6134C104.862 48.3121 103.524 50.8196 101.275 52.3169L96.5471 55.4706C93.8257 57.291 90.3261 57.2865 87.6046 55.4706L82.8808 52.3169ZM92.0782 95.0861L87.8367 90.8447L88.6286 69.9925L91.0588 72.4227C91.3364 72.7003 91.6959 72.8368 92.0645 72.8368C92.424 72.8368 92.7926 72.7003 93.0702 72.4227L95.5095 69.9834L96.315 90.8401L92.0782 95.0861ZM92.0645 69.4146L84.5373 61.8874L92.0782 59.7576L99.6053 61.8829L92.0645 69.4146Z" fill="#034980"></path><path id="Vector_6" d="M92.0781 10.4307C66.2291 10.4307 45.1949 31.4649 45.1949 57.3139C45.1949 83.1675 66.2291 104.202 92.0781 104.202C117.927 104.202 138.961 83.1675 138.961 57.3139C138.961 31.4649 117.927 10.4307 92.0781 10.4307ZM92.0781 101.357C67.79 101.357 48.0346 81.602 48.0346 57.3139C48.0346 33.0304 67.79 13.2704 92.0781 13.2704C116.366 13.2704 136.122 33.0258 136.122 57.3139C136.122 81.602 116.362 101.357 92.0781 101.357Z" fill="#034980"></path><path id="Vector_7" d="M69.3465 78.626C68.5637 78.626 67.9266 79.2631 67.9266 80.0459V89.9304C67.9266 90.7131 68.5637 91.3503 69.3465 91.3503C70.1292 91.3503 70.7663 90.7131 70.7663 89.9304V80.0459C70.7663 79.2631 70.1292 78.626 69.3465 78.626Z" fill="#034980"></path><path id="Vector_8" d="M114.81 78.626C114.027 78.626 113.39 79.2631 113.39 80.0459V89.9304C113.39 90.7131 114.027 91.3503 114.81 91.3503C115.593 91.3503 116.23 90.7131 116.23 89.9304V80.0459C116.23 79.2631 115.593 78.626 114.81 78.626Z" fill="#034980"></path></g><g id="Group_3"><path id="Vector_9" d="M183.214 80.4049C183.997 80.4049 184.634 79.7678 184.634 78.9851V74.7209H188.898C189.681 74.7209 190.318 74.0838 190.318 73.301V56.2534C190.318 55.4706 189.681 54.8335 188.898 54.8335H184.634V39.2058C184.634 38.423 183.997 37.7859 183.214 37.7859C182.431 37.7859 181.794 38.423 181.794 39.2058V54.8335H177.53C176.747 54.8335 176.11 55.4706 176.11 56.2534V73.301C176.11 74.0838 176.747 74.7209 177.53 74.7209H181.794V78.9851C181.794 79.7678 182.431 80.4049 183.214 80.4049ZM178.955 71.8811V57.6733H187.478V71.8811H178.955Z" fill="#034980"></path><path id="Vector_10" d="M166.167 96.0328C166.949 96.0328 167.586 95.3957 167.586 94.6129V90.3488H171.851C172.633 90.3488 173.27 89.7116 173.27 88.9289V77.5608C173.27 76.778 172.633 76.1409 171.851 76.1409H167.586V60.5131C167.586 59.7304 166.949 59.0933 166.167 59.0933C165.384 59.0933 164.747 59.7304 164.747 60.5131V76.1409H160.483C159.7 76.1409 159.063 76.778 159.063 77.5608V88.9289C159.063 89.7116 159.7 90.3488 160.483 90.3488H164.747V94.6129C164.747 95.3957 165.384 96.0328 166.167 96.0328ZM161.902 87.509V78.9852H170.426V87.509H161.902Z" fill="#034980"></path><path id="Vector_11" d="M149.119 96.0329C149.902 96.0329 150.539 95.3958 150.539 94.613V78.9853H154.803C155.586 78.9853 156.223 78.3481 156.223 77.5654V66.1973C156.223 65.4145 155.586 64.7774 154.803 64.7774H150.539V54.8337C150.539 54.0509 149.902 53.4138 149.119 53.4138C148.336 53.4138 147.699 54.0509 147.699 54.8337V64.7774H143.435C142.652 64.7774 142.015 65.4145 142.015 66.1973V77.5654C142.015 78.3481 142.652 78.9853 143.435 78.9853H147.699V94.613C147.695 95.3958 148.336 96.0329 149.119 96.0329ZM144.855 76.1455V67.6217H153.379V76.1455H144.855Z" fill="#034980"></path></g><path id="Vector_12" d="M124.64 10.1437C124.64 6.25271 127.803 3.08984 131.694 3.08984C135.585 3.08984 138.748 6.25271 138.748 10.1437C138.748 14.0347 135.585 17.1976 131.694 17.1976C127.803 17.1976 124.64 14.0302 124.64 10.1437ZM127.461 10.1437C127.461 12.4783 129.359 14.376 131.694 14.376C134.028 14.376 135.926 12.4783 135.926 10.1437C135.926 7.80911 134.028 5.91139 131.694 5.91139C129.359 5.91139 127.461 7.80911 127.461 10.1437Z" fill="#034980"></path><path id="Vector_13" d="M28.8436 103.947C28.8436 100.056 32.0064 96.8928 35.8974 96.8928C39.7885 96.8928 42.9513 100.056 42.9513 103.947C42.9513 107.838 39.7885 111.001 35.8974 111.001C32.0064 111.001 28.8436 107.838 28.8436 103.947ZM31.6651 103.947C31.6651 106.281 33.5628 108.179 35.8974 108.179C38.232 108.179 40.1298 106.281 40.1298 103.947C40.1298 101.612 38.232 99.7144 35.8974 99.7144C33.5628 99.7144 31.6651 101.612 31.6651 103.947Z" fill="#034980"></path><path id="Vector_14" d="M137.541 25.8672C137.541 18.8407 143.257 13.1248 150.284 13.1248C157.31 13.1248 163.026 18.8407 163.026 25.8672C163.026 32.8938 157.31 38.6097 150.284 38.6097C143.257 38.6097 137.541 32.8938 137.541 25.8672ZM140.372 25.8672C140.372 31.3329 144.818 35.7791 150.284 35.7791C155.75 35.7791 160.196 31.3329 160.196 25.8672C160.196 20.4016 155.75 15.9554 150.284 15.9554C144.818 15.9554 140.372 20.4016 140.372 25.8672Z" fill="#034980"></path><path id="Vector_15" d="M48.0347 113.859C48.0347 106.832 53.7506 101.116 60.7772 101.116C67.8037 101.116 73.5196 106.832 73.5196 113.859C73.5196 120.885 67.8037 126.601 60.7772 126.601C53.7506 126.601 48.0347 120.885 48.0347 113.859ZM50.8653 113.859C50.8653 119.324 55.3115 123.771 60.7772 123.771C66.2428 123.771 70.689 119.324 70.689 113.859C70.689 108.393 66.2428 103.947 60.7772 103.947C55.3115 103.947 50.8653 108.393 50.8653 113.859Z" fill="#034980"></path></g></svg>